<svg xmlns="http://www.w3.org/2000/svg">
    <symbol id="advantage-icon-diamond-border" viewBox="0 0 270 270">
        <path d="M134.958 -0.365967L0.151367 134.441L134.958 269.248L269.765 134.441L134.958 -0.365967ZM8.63667 134.441L134.958 8.11943L261.28 134.441L134.958 260.763L8.63667 134.441Z"/>
    </symbol>
    <symbol id="advantage-icon-arrowCornerwise" viewBox="0 0 270 270">
        <path d="M195.04 129.424L88.8848 88.6348L129.674 194.79L147.516 163.973L173.25 189.707L189.957 173L164.223 147.266L195.04 129.424ZM181.472 173L173.25 181.222L146.236 154.208L130.771 180.918L99.3233 99.0732L181.168 130.521L154.458 145.986L181.472 173Z"/>
    </symbol>
    <symbol id="advantage-icon-arrowDown" viewBox="0 0 270 270">
        <path d="M150.374 160.063V75.3398H119.326V160.063H82.9014L134.85 212.012L186.799 160.063H150.374ZM97.3867 166.063H125.326V81.3398H144.374V166.063H172.314L134.85 203.526L97.3867 166.063Z"/>
    </symbol>
    <symbol id="advantage-icon-arrowUpDown" viewBox="0 0 270 270">
        <path d="M148.523 105.706H179.762L135.017 60.9609L90.2715 105.706H121.511V165.054H90.2715L135.017 209.8L179.762 165.055H148.523V105.706ZM165.277 171.054L135.017 201.314L104.757 171.054H127.511V99.706H104.757L135.017 69.446L165.277 99.706H142.523V171.054H165.277Z"/>
    </symbol>
    <symbol id="advantage-icon-cash" viewBox="0 0 270 270">
        <path d="M150.726 64.3242L64.8418 150.209L107.802 193.169L193.686 107.284L150.726 64.3242ZM73.3272 150.209L150.726 72.8098L185.2 107.284L107.802 184.683L73.3272 150.209Z"/>
        <path d="M198.908 112.505L113.023 198.39L117.266 202.632L203.15 116.748L198.908 112.505Z"/>
        <path d="M207.911 121.51L122.027 207.394L126.27 211.636L212.154 125.752L207.911 121.51Z"/>
    </symbol>
    <symbol id="advantage-icon-chain" viewBox="0 0 270 270">
        <path d="M166.979 76.0889H158.562L112.444 122.205V130.624L133.931 152.11L138.173 147.866L118.444 128.138V124.691L161.046 82.0889H164.494L188.396 105.992V109.44L164.629 133.207V141.691L194.396 111.925V103.507L166.979 76.0889Z"/>
        <path d="M135.729 119.391L131.487 123.633L151.121 143.267V146.715L108.168 189.669H104.72L80.8164 165.766V162.318L105.105 138.03V129.545L74.8164 159.833V168.251L102.235 195.669H110.652L111.531 194.79L157.121 149.2V140.782L136.304 119.965L135.729 119.391Z"/>
    </symbol>
    <symbol id="advantage-icon-chair" viewBox="0 0 270 270">
        <path d="M198.053 131.44C198.058 126.677 196.303 122.081 193.125 118.533C189.948 114.985 185.571 112.737 180.837 112.219V92.3955C180.833 88.9787 179.474 85.703 177.058 83.2869C174.642 80.8708 171.367 79.5118 167.95 79.5078H102.041C98.6237 79.5116 95.3479 80.8706 92.9318 83.2867C90.5157 85.7028 89.1567 88.9786 89.1529 92.3955V112.218C85.1928 112.653 81.4638 114.301 78.4765 116.937C75.4891 119.573 73.3893 123.067 72.4645 126.942C71.5397 130.818 71.835 134.884 73.31 138.585C74.7851 142.286 77.3678 145.44 80.7047 147.617L78.1671 186.937H102.232L110.42 178.449H159.615L167.753 186.937H191.822L189.285 147.617C191.981 145.867 194.195 143.469 195.727 140.644C197.259 137.818 198.058 134.654 198.053 131.44ZM102.041 85.5078H167.95C169.776 85.5099 171.527 86.2362 172.818 87.5275C174.109 88.8187 174.835 90.5694 174.838 92.3955V112.49C170.413 113.444 166.453 115.898 163.628 119.435C160.803 122.972 159.285 127.376 159.333 131.902V135.121C151.257 134.122 143.132 133.584 134.996 133.508C126.859 133.588 118.734 134.128 110.658 135.126V131.902C110.705 127.375 109.188 122.971 106.363 119.434C103.538 115.897 99.5779 113.444 95.1529 112.49V92.3955C95.155 90.5694 95.8813 88.8187 97.1726 87.5275C98.4638 86.2362 100.215 85.5099 102.041 85.5078ZM184.799 143.293L183.052 144.193L185.423 180.937H170.312L162.174 172.449H107.871L99.6832 180.937H84.5665L86.9381 144.193L85.191 143.294C82.4786 141.899 80.3256 139.618 79.0903 136.83C77.855 134.041 77.612 130.914 78.4018 127.968C79.1915 125.023 80.9664 122.436 83.4309 120.64C85.8954 118.843 88.9008 117.945 91.9469 118.095C98.9556 118.425 104.658 124.619 104.658 131.902V142.327L108.256 141.595C113.935 140.44 127.527 139.509 134.995 139.509C142.539 139.509 156.144 140.439 161.724 141.593L165.332 142.339V131.902C165.332 124.619 171.034 118.425 178.043 118.095C181.09 117.942 184.098 118.838 186.565 120.635C189.032 122.431 190.808 125.018 191.598 127.965C192.388 130.912 192.145 134.042 190.907 136.831C189.67 139.62 187.514 141.901 184.799 143.293V143.293Z"/>
    </symbol>
    <symbol id="advantage-icon-check" viewBox="0 0 270 270">
        <path d="M161.591 89.8941L152.414 80.6941L143.457 89.674L134.501 80.6941L125.544 89.674L116.587 80.6941L107.411 89.8932L95.505 80.3105L95.502 189.56L107.411 179.977L116.587 189.177L125.544 180.197L134.501 189.177L143.457 180.197L152.414 189.177L161.591 179.977L173.497 189.56L173.5 80.3111L161.591 89.8941ZM167.512 177.049L161.153 171.93L152.414 180.691L143.457 171.711L134.501 180.691L125.544 171.711L116.587 180.691L107.849 171.931L101.487 177.05L101.489 92.8211L107.849 97.9401L116.587 89.1795L125.544 98.1594L134.501 89.1795L143.457 98.1594L152.414 89.1795L161.153 97.9395L167.515 92.8204L167.512 177.049Z"/>
        <path d="M140.5 112.938H110.5V118.936H140.5V112.938Z"/>
        <path d="M140.5 130.938H110.5V136.936H140.5V130.938Z"/>
        <path d="M140.5 148.938H110.5V154.936H140.5V148.938Z"/>
    </symbol>
    <symbol id="advantage-icon-clock" viewBox="0 0 270 270">
        <path d="M174.1 96.2002V72.2002H96.2002V96.2002C96.2002 100.2 97.8002 104 100.6 106.9L127.9 134.2L100.6 161.5C97.7002 164.4 96.2002 168.1 96.2002 172.2V196.2H174V172.2C174 168.2 172.4 164.4 169.6 161.5L142.3 134.2L169.6 106.9C172.5 104 174.1 100.2 174.1 96.2002ZM106.7 190.1L135.2 161.6L163.7 190.1H106.7ZM165.4 165.7C167.1 167.4 168.1 169.7 168.1 172.1V186.1L135.2 153.2L102.3 186.1V172.1C102.3 169.7 103.2 167.4 105 165.7L135.2 135.5L165.4 165.7ZM135.1 132.8L106.1 103.8H164L135.1 132.8ZM168.1 96.2002C168.1 96.8002 168 97.4002 167.9 97.9002H102.4C102.3 97.3002 102.2 96.8002 102.2 96.2002V78.2002H168V96.2002H168.1Z"/>
    </symbol>
    <symbol id="advantage-icon-control" viewBox="0 0 270 270">
        <path d="M164.1 138.2L144 158.3H70.5V164.3H143.9L164.1 184.5L184.3 164.3H199.5V158.3H184.3L164.1 138.2ZM164.1 176.1L149.4 161.4L164.1 146.7L178.8 161.4L164.1 176.1Z"/>
        <path d="M126.1 105.7L105.9 85.5L85.7 105.7H70.5V111.7H85.7L105.9 131.9L126.1 111.7H199.5V105.7H126.1ZM105.9 123.5L91.2 108.8L105.9 94L120.6 108.7L105.9 123.5Z"/>
    </symbol>
    <symbol id="advantage-icon-cursor" viewBox="0 0 270 270">
        <path d="M195.04 129.424L88.8848 88.6348L129.674 194.79L147.516 163.973L173.25 189.707L189.957 173L164.223 147.266L195.04 129.424ZM181.472 173L173.25 181.222L146.236 154.208L130.771 180.918L99.3233 99.0732L181.168 130.521L154.458 145.986L181.472 173Z"/>
    </symbol>
    <symbol id="advantage-icon-diploma" viewBox="0 0 270 270">
        <path d="M211.237 114.021L134.893 86.3809L58.5488 114.021V124.874L85.1274 134.496V179.89L135.092 197.888L185.057 179.89V134.352L211.237 124.874V114.021ZM179.057 175.674L135.092 191.511L91.1274 175.674V136.669L134.893 152.514L179.057 136.525V175.674ZM205.237 120.665L134.893 146.133L64.5488 120.665V118.23L134.893 92.7616L205.237 118.23V120.665Z"/>
    </symbol>
    <symbol id="advantage-icon-eye" viewBox="0 0 270 270">
        <path d="M118.638 135.297L135.445 152.104L152.253 135.297L135.445 118.49L118.638 135.297ZM135.445 143.619L127.124 135.297L135.445 126.976L143.767 135.297L135.445 143.619Z"/>
        <path d="M192.32 113.149C169.964 96.7852 153.223 89.7969 136.368 89.7969C136.332 89.7969 136.293 89.7969 136.257 89.7974C119.5 89.8274 102.268 96.7969 78.6375 113.101L49.1475 135.427L78.5312 157.675L78.6191 157.739C100.478 173.076 117.775 180.741 135.17 180.741C152.556 180.741 170.039 173.077 192.252 157.752L221.744 135.427L192.32 113.149ZM188.791 152.852C166.485 168.232 151.218 174.589 136.104 174.792C120.457 175.002 104.329 168.442 82.1092 152.858L59.087 135.427L82.1001 118.002C104.627 102.466 120.83 95.8253 136.268 95.797H136.367C151.848 95.797 167.531 102.44 188.739 117.962L211.805 135.427L188.791 152.852Z"/>
        <path d="M135.445 102.026C128.864 102.026 122.432 103.978 116.96 107.634C111.489 111.289 107.224 116.486 104.706 122.565C102.187 128.645 101.528 135.335 102.812 141.789C104.096 148.243 107.265 154.172 111.918 158.825C116.571 163.478 122.499 166.647 128.953 167.931C135.408 169.214 142.097 168.556 148.177 166.037C154.257 163.519 159.453 159.255 163.109 153.783C166.765 148.312 168.716 141.879 168.716 135.298C168.706 126.477 165.198 118.02 158.96 111.783C152.723 105.545 144.266 102.037 135.445 102.026ZM135.445 162.57C130.051 162.57 124.778 160.971 120.293 157.974C115.809 154.977 112.313 150.718 110.249 145.735C108.185 140.751 107.645 135.268 108.697 129.978C109.749 124.687 112.347 119.828 116.161 116.014C119.975 112.2 124.834 109.603 130.124 108.55C135.415 107.498 140.898 108.038 145.881 110.102C150.865 112.166 155.124 115.662 158.12 120.147C161.117 124.632 162.717 129.904 162.716 135.298C162.708 142.529 159.832 149.461 154.72 154.573C149.607 159.686 142.675 162.562 135.445 162.57V162.57Z"/>
    </symbol>
    <symbol id="advantage-icon-glass" viewBox="0 0 270 270">
        <path d="M194.902 176.054L163.283 144.436C168.673 134.653 170.382 123.263 168.101 112.33C165.82 101.396 159.7 91.6395 150.849 84.8274C141.997 78.0154 130.999 74.5974 119.846 75.1924C108.692 75.7874 98.1204 80.3559 90.0439 88.071C81.9673 95.7861 76.9199 106.138 75.8152 117.252C74.7106 128.367 77.6217 139.51 84.0217 148.664C90.4216 157.817 99.8875 164.378 110.706 167.156C121.524 169.935 132.979 168.749 142.998 163.812L175.071 195.885L194.902 176.054ZM81.659 121.912C81.659 113.859 84.0469 105.987 88.5206 99.2919C92.9944 92.5965 99.3531 87.378 106.793 84.2964C114.232 81.2148 122.419 80.4086 130.316 81.9795C138.214 83.5505 145.469 87.4282 151.163 93.1222C156.857 98.8162 160.735 106.071 162.306 113.969C163.876 121.866 163.07 130.053 159.989 137.492C156.907 144.932 151.689 151.291 144.993 155.764C138.298 160.238 130.426 162.626 122.373 162.626C111.579 162.614 101.23 158.321 93.5973 150.688C85.9645 143.055 81.6711 132.706 81.659 121.912ZM159.966 149.604L186.416 176.054L175.071 187.4L148.373 160.702C152.844 157.693 156.765 153.939 159.966 149.604Z"/>
    </symbol>
    <symbol id="advantage-icon-headset" viewBox="0 0 270 270">
        <path d="M135.2 208.6L149.1 194.7C165.5 194.5 179 181.8 180.6 165.8C193.9 165.1 204.4 154.1 204.4 140.6C204.4 127.2 193.9 116.2 180.7 115.5V115C180.7 89.6996 160.1 69.0996 134.8 69.0996C109.6 69.0996 89.0996 89.4996 88.8996 114.6C75.1996 114.8 64.0996 126 64.0996 139.8C64.0996 153.7 75.3996 165 89.2996 165C89.8996 165 90.4996 165 91.0996 164.9H94.8996V115C94.8996 92.9996 112.8 75.0996 134.8 75.0996C156.8 75.0996 174.7 92.9996 174.7 115V162.6C174.7 176.9 163.1 188.5 148.9 188.7L135.2 175L118.4 191.8L135.2 208.6ZM70.1996 139.7C70.1996 129.3 78.5996 120.8 88.9996 120.5V158.8C78.5996 158.7 70.1996 150.2 70.1996 139.7ZM198.5 140.6C198.5 150.7 190.7 158.9 180.8 159.7V121.5C190.7 122.2 198.5 130.5 198.5 140.6ZM135.2 183.4L143.5 191.7L135.2 200L126.9 191.7L135.2 183.4Z"/>
    </symbol>
    <symbol id="advantage-icon-heart" viewBox="0 0 270 270">
        <path d="M191.644 108.17C188.671 105.197 185.142 102.839 181.257 101.23C177.373 99.6212 173.21 98.793 169.005 98.793C164.801 98.793 160.638 99.6212 156.753 101.23C152.869 102.839 149.339 105.197 146.366 108.17L135.857 118.679L125.347 108.17C122.376 105.189 118.846 102.824 114.96 101.208C111.073 99.5926 106.906 98.7593 102.698 98.7559C98.4888 98.7524 94.3206 99.5788 90.4315 101.188C86.5423 102.797 83.0086 105.157 80.0325 108.133C77.0564 111.109 74.6964 114.643 73.0873 118.532C71.4782 122.421 70.6518 126.589 70.6553 130.798C70.6588 135.007 71.492 139.174 73.1075 143.06C74.723 146.947 77.0889 150.477 80.0699 153.448L135.857 209.235L191.644 153.448C194.617 150.475 196.975 146.946 198.584 143.061C200.193 139.177 201.021 135.014 201.021 130.809C201.021 126.605 200.193 122.441 198.584 118.557C196.975 114.673 194.617 111.143 191.644 108.17ZM187.402 149.206L135.857 200.75L84.3123 149.205C79.4333 144.326 76.6923 137.709 76.6924 130.809C76.6924 123.909 79.4335 117.292 84.3125 112.413C89.1916 107.534 95.809 104.793 102.709 104.793C109.609 104.793 116.226 107.534 121.105 112.413L135.857 127.164L150.609 112.412C155.49 107.543 162.104 104.811 168.998 104.815C175.893 104.82 182.504 107.56 187.379 112.435C192.254 117.31 194.995 123.921 194.999 130.816C195.003 137.71 192.271 144.324 187.402 149.205V149.206Z"/>
    </symbol>
    <symbol id="advantage-icon-lightning" viewBox="0 0 270 270">
        <path d="M104.172 205.661L119.504 146.893H81.8535L165.32 63.4258L149.989 122.194H187.639L104.172 205.661ZM96.3375 140.893H127.269L115.557 185.792L173.155 128.194H142.223L153.935 83.2949L96.3375 140.893Z"/>
    </symbol>
    <symbol id="advantage-icon-padlock" viewBox="0 0 270 270">
        <path d="M173.346 117.316V100.281C173.346 95.3582 172.376 90.4834 170.492 85.9351C168.608 81.3868 165.847 77.2541 162.366 73.773C158.885 70.2919 154.752 67.5306 150.204 65.6466C145.655 63.7626 140.78 62.793 135.857 62.793C130.934 62.793 126.06 63.7626 121.511 65.6466C116.963 67.5306 112.83 70.2919 109.349 73.773C105.868 77.2541 103.107 81.3868 101.223 85.9351C99.3388 90.4834 98.3691 95.3582 98.3691 100.281V117.316H81.3545V154.576C81.3545 169.031 87.0967 182.894 97.318 193.115C107.539 203.337 121.402 209.079 135.857 209.079C150.312 209.079 164.175 203.337 174.397 193.115C184.618 182.894 190.36 169.031 190.36 154.576V117.316H173.346ZM104.369 100.281C104.369 96.1462 105.184 92.0516 106.766 88.2312C108.348 84.4109 110.668 80.9396 113.592 78.0157C116.516 75.0917 119.987 72.7723 123.807 71.1899C127.628 69.6074 131.722 68.793 135.857 68.793C139.992 68.793 144.087 69.6074 147.907 71.1899C151.728 72.7723 155.199 75.0917 158.123 78.0157C161.047 80.9396 163.366 84.4109 164.949 88.2312C166.531 92.0516 167.346 96.1462 167.346 100.281V117.316H104.369V100.281ZM184.36 154.576C184.36 160.946 183.106 167.253 180.668 173.137C178.231 179.022 174.658 184.369 170.154 188.873C165.65 193.377 160.303 196.95 154.419 199.387C148.534 201.825 142.227 203.079 135.857 203.079C129.488 203.079 123.181 201.825 117.296 199.387C111.411 196.95 106.064 193.377 101.561 188.873C97.0567 184.369 93.484 179.022 91.0465 173.137C88.609 167.253 87.3544 160.946 87.3544 154.576V123.316H184.36V154.576Z"/>
        <path d="M123.352 182.507H148.363L144.096 159.157L152.849 150.403L135.857 133.412L118.866 150.404L127.619 159.157L123.352 182.507ZM127.352 150.404L135.857 141.898L144.363 150.404L137.628 157.139L141.167 176.507H130.548L134.087 157.139L127.352 150.404Z"/>
    </symbol>
    <symbol id="advantage-icon-safeBox" viewBox="0 0 270 270">
        <path d="M134.429 61.1465L78.8213 116.754V153.246L134.429 208.853L190.036 153.246V116.754L134.429 61.1465ZM182.793 117.996L134.429 166.361L86.0637 117.997L134.429 69.6319L182.793 117.996ZM84.8213 125.239L131.621 172.038V197.56L84.8213 150.761V125.239ZM137.621 197.176V171.654L184.036 125.238V150.761L137.621 197.176Z"/>
    </symbol>
    <symbol id="advantage-icon-shield" viewBox="0 0 270 270">
        <path d="M136.338 85.3086L86.9287 97.7344V149.921C86.9287 168.324 97.3506 177.168 120.185 196.545C124.396 200.119 129.168 204.168 134.361 208.692L136.349 210.423L138.321 208.676C144.354 203.332 149.764 198.718 154.536 194.647C175.993 176.346 185.786 167.994 185.786 149.921V97.7339L136.338 85.3086ZM92.9287 149.921V102.412L133.357 92.2447V199.892C130.032 197.034 126.918 194.39 124.067 191.971C102.044 173.282 92.9287 165.547 92.9287 149.921ZM179.786 149.921C179.786 165.225 171.255 172.502 150.643 190.082C147.214 193.006 143.442 196.228 139.357 199.785V92.2539L179.786 102.413V149.921Z"/>
    </symbol>
    <symbol id="advantage-icon-sun" viewBox="0 0 270 270">
        <path d="M135 96.4004C113.4 96.4004 95.9004 114 95.9004 135.5C95.9004 157 113.5 174.6 135 174.6C156.5 174.6 174.1 157 174.1 135.5C174.1 114 156.6 96.4004 135 96.4004ZM135 168.6C116.7 168.6 101.9 153.7 101.9 135.5C101.9 117.3 116.8 102.4 135 102.4C153.3 102.4 168.1 117.3 168.1 135.5C168.1 153.7 153.3 168.6 135 168.6Z"/>
        <path d="M186.1 114.3V84.3998H156.2L135 63.2998L113.8 84.4998H83.9002V114.4L62.7002 135.6L83.9002 156.8V186.7H113.8L135 207.9L156.2 186.7H186.1V156.8L207.3 135.6L186.1 114.3ZM180.1 154.2V180.6H153.7L135 199.3L116.3 180.6H89.9002V154.2L71.2002 135.5L89.9002 116.8V90.3998H116.3L135 71.6998L153.7 90.3998H180.1V116.8L198.8 135.5L180.1 154.2Z"/>
    </symbol>
    <symbol id="advantage-icon-sweden" viewBox="0 0 270 270">
        <path d="M127.136 93.0645V93H100.007V93.0645H70.5713V179.064H100.007V179.128H127.136V179.064H196.571V93.0645H127.136ZM121.136 173.064H106.007V143.128H76.5713V129H106.007V99.0645H121.136V129H190.571V143.128H121.136V173.064ZM76.5713 99.0645H100.007V123H76.5713V99.0645ZM76.5713 173.064V149.128H100.007V173.064H76.5713ZM190.571 173.064H127.136V149.128H190.571V173.064ZM127.136 123V99.0645H190.571V123H127.136Z"/>
    </symbol>
    <symbol id="advantage-icon-thumpUp" viewBox="0 0 270 270">
        <path d="M188.6 113.318C187.524 112.025 186.177 110.986 184.654 110.272C183.131 109.559 181.469 109.191 179.787 109.193H152.997C151.499 109.193 150.021 108.845 148.68 108.176C147.339 107.507 146.172 106.536 145.27 105.339C144.369 104.142 143.758 102.752 143.486 101.278C143.213 99.8044 143.287 98.2878 143.701 96.8477L150.915 71.7577C152.227 68.4788 152.219 64.8195 150.894 61.5461C149.568 58.2728 147.027 55.6394 143.803 54.1977C142.166 53.4989 140.405 53.1327 138.625 53.1204C136.845 53.1081 135.08 53.4499 133.433 54.126C131.786 54.802 130.289 55.7988 129.031 57.0583C127.773 58.3179 126.778 59.8151 126.103 61.4628L106.521 107.466H80.2041V186.076H166.925C170.459 186.077 173.882 184.838 176.596 182.574C179.31 180.311 181.143 177.166 181.776 173.689L191.076 122.729C191.381 121.075 191.316 119.374 190.888 117.748C190.46 116.121 189.679 114.609 188.6 113.318ZM104.19 180.076H86.2041V113.466H104.19V180.076ZM185.174 121.652L175.874 172.612C175.492 174.707 174.387 176.601 172.752 177.965C171.117 179.329 169.055 180.076 166.925 180.075H110.19V114.165L131.645 63.7622C132.015 62.8467 132.565 62.0143 133.261 61.3136C133.957 60.6129 134.786 60.058 135.699 59.6814C136.612 59.3047 137.591 59.1137 138.578 59.1197C139.566 59.1257 140.542 59.3285 141.451 59.7163C143.259 60.5484 144.671 62.0524 145.389 63.9091C146.106 65.7658 146.071 67.8289 145.292 69.6605L137.935 95.1895C137.264 97.523 137.144 99.9804 137.585 102.368C138.027 104.756 139.016 107.008 140.477 108.948C141.938 110.887 143.829 112.461 146.001 113.545C148.174 114.629 150.569 115.193 152.997 115.193H179.787C180.589 115.193 181.382 115.369 182.109 115.709C182.836 116.049 183.479 116.545 183.993 117.161C184.507 117.778 184.879 118.499 185.083 119.275C185.287 120.051 185.318 120.863 185.174 121.652H185.174Z"/>
    </symbol>
    <symbol id="advantage-icon-universe" viewBox="0 0 270 270">
        <path d="M210.502 105.807C199.319 142.684 160.219 181.784 123.342 192.968C110.21 196.95 99.8057 195.972 94.0474 190.213C88.0605 184.227 87.085 173.276 91.3003 159.377C98.6987 134.981 121.864 110.439 144.038 103.506C152.602 100.83 158.298 102.106 160.146 104.557C161.904 106.888 161.016 111.112 157.708 116.145C155.325 119.771 149.662 124.827 145.076 127.516L135.759 111.014L125.779 128.634L108.161 138.614L121.304 146.034C116.475 149.304 111.403 154.075 108.896 157.89C102.347 167.855 104.698 173.755 106.682 176.386C109.146 179.652 113.41 181.333 118.793 181.333C122.388 181.272 125.953 180.671 129.37 179.55C153.243 172.087 178.144 145.795 186.06 119.694C190.948 103.577 189.44 90.4999 181.814 82.8738C174.415 75.4754 161.885 73.9647 146.535 78.6199C107.966 90.3182 67.0707 131.213 55.373 169.782L61.1152 171.524C72.2988 134.647 111.399 95.5462 148.276 84.3626C161.408 80.3797 171.812 81.3572 177.571 87.117C183.558 93.1033 184.533 104.054 180.318 117.953C172.919 142.35 149.753 166.892 127.58 173.824C119.019 176.5 113.321 175.224 111.472 172.773C109.714 170.442 110.603 166.219 113.91 161.185C116.296 157.554 121.971 152.49 126.56 149.804L135.76 166.267L145.652 148.506L163.412 138.614L150.316 131.295C155.144 128.024 160.215 123.255 162.722 119.44C169.271 109.475 166.921 103.574 164.937 100.944C161.017 95.7469 152.536 94.5642 142.248 97.7796C118.375 105.243 93.4739 131.536 85.5583 157.636C80.6706 173.754 82.1782 186.83 89.8048 194.456C94.3863 199.038 100.934 201.361 108.902 201.361C114.396 201.272 119.848 200.379 125.083 198.71C163.653 187.013 204.548 146.118 216.245 107.548L210.502 105.807ZM141.241 144.095L135.751 153.951L130.321 144.235L120.349 138.605L130.182 133.036L135.75 123.204L141.38 133.175L151.098 138.605L141.241 144.095Z"/>
    </symbol>
    <symbol id="advantage-icon-victory" viewBox="0 0 270 270">
        <path d="M148.159 120.935L153.443 79.3716C153.872 75.9613 152.931 72.5199 150.827 69.8024C148.722 67.0848 145.625 65.3129 142.216 64.8755L141.39 64.7705C137.98 64.3415 134.539 65.2824 131.821 67.3869C129.104 69.4913 127.332 72.5876 126.894 75.9966L123.067 106.104L119.24 75.9966C118.802 72.5877 117.03 69.4915 114.313 67.387C111.596 65.2825 108.155 64.3416 104.745 64.7705L103.917 64.8755C100.508 65.3131 97.4118 67.0851 95.3073 69.8026C93.2028 72.5202 92.2622 75.9614 92.6916 79.3716L99.3116 131.452L93.8355 133.416V164.81C93.849 176.826 98.6282 188.346 107.125 196.842C115.621 205.339 127.141 210.118 139.157 210.132H142.697C154.713 210.118 166.233 205.339 174.729 196.842C183.226 188.346 188.005 176.826 188.018 164.81L188.093 120.935L148.159 120.935ZM147.611 134.399C147.786 133.169 147.786 131.92 147.611 130.691V126.935H161.706V143.653C161.699 145.518 160.954 147.303 159.633 148.619C158.312 149.935 156.523 150.674 154.658 150.674C152.794 150.674 151.005 149.935 149.684 148.619C148.363 147.303 147.618 145.518 147.611 143.653V134.399ZM132.846 76.7534C133.082 74.9224 134.034 73.2594 135.494 72.129C136.953 70.9986 138.802 70.4929 140.634 70.7227L141.46 70.8277C143.291 71.0628 144.954 72.0146 146.085 73.4745C147.215 74.9343 147.721 76.7829 147.49 78.6148L142.111 120.935H141.611V121.114C139.773 119.89 137.667 119.129 135.472 118.895C133.277 118.661 131.058 118.96 129.004 119.768L127.293 120.442L132.846 76.7534ZM98.6438 78.6148C98.4131 76.783 98.9184 74.9344 100.049 73.4746C101.179 72.0147 102.842 71.0629 104.674 70.8277L105.501 70.7227C106.408 70.6067 107.33 70.6707 108.212 70.9111C109.095 71.1515 109.921 71.5635 110.645 72.1236C111.368 72.6838 111.974 73.381 112.427 74.1754C112.881 74.9698 113.173 75.8459 113.288 76.7534L119.243 123.609L105.072 129.185L98.6438 78.6148ZM182.018 164.81C182.007 175.235 177.86 185.23 170.488 192.602C163.116 199.973 153.122 204.12 142.696 204.132H139.157C128.731 204.12 118.737 199.973 111.365 192.601C103.994 185.23 99.8475 175.235 99.8357 164.81V137.693L131.201 125.351C132.262 124.933 133.403 124.755 134.541 124.831C135.679 124.907 136.786 125.235 137.782 125.791C138.778 126.347 139.638 127.117 140.3 128.045C140.962 128.974 141.41 130.038 141.611 131.161V133.873C141.394 135.102 140.883 136.26 140.121 137.248C139.36 138.236 138.37 139.026 137.237 139.548L120.304 147.296V165.728H126.304V151.149L139.734 145.004C140.392 144.701 141.024 144.346 141.626 143.943C141.682 146.622 142.563 149.219 144.149 151.379C145.734 153.539 147.947 155.158 150.486 156.016C153.025 156.873 155.767 156.927 158.337 156.17C160.908 155.413 163.183 153.882 164.852 151.786C166.852 154.302 169.712 155.989 172.882 156.521C176.052 157.053 179.307 156.393 182.019 154.668L182.018 164.81ZM182.093 143.653C182.093 144.579 181.91 145.495 181.556 146.35C181.202 147.205 180.683 147.982 180.028 148.637C179.374 149.291 178.597 149.81 177.742 150.164C176.887 150.519 175.97 150.701 175.045 150.701H175.044C174.119 150.701 173.202 150.519 172.347 150.165C171.492 149.81 170.715 149.291 170.061 148.637C169.406 147.982 168.887 147.205 168.533 146.35C168.179 145.495 167.996 144.579 167.996 143.653V126.935H182.093V143.653Z"/>
    </symbol>
    <symbol id="advantage-icon-wiFi" viewBox="0 0 270 270">
        <path d="M104.454 165.084L108.716 169.345C116.362 163.09 125.936 159.673 135.815 159.673C145.694 159.673 155.268 163.09 162.914 169.345L167.176 165.084C158.388 157.713 147.285 153.673 135.815 153.673C124.345 153.673 113.242 157.713 104.454 165.084V165.084Z"/>
        <path d="M135.815 92.72C108.179 92.6996 81.5586 103.133 61.2961 121.925L65.5392 126.168C84.6866 108.519 109.774 98.72 135.815 98.72C161.856 98.72 186.944 108.519 206.091 126.168L210.334 121.925C190.071 103.133 163.451 92.6995 135.815 92.72Z"/>
        <path d="M83.98 144.609L88.228 148.857C101.342 137.207 118.274 130.772 135.815 130.772C153.357 130.772 170.289 137.207 183.403 148.857L187.651 144.609C173.407 131.836 154.948 124.772 135.816 124.772C116.683 124.772 98.2244 131.836 83.98 144.609V144.609Z"/>
        <path d="M118.81 195.155L135.815 212.16L152.819 195.156L135.815 178.151L118.81 195.155ZM135.815 203.674L127.296 195.155L135.815 186.636L144.334 195.155L135.815 203.674Z"/>
    </symbol>
</svg>
