<svg xmlns="http://www.w3.org/2000/svg">
    <symbol id="social-network-border" viewBox="0 0 61 61">
        <path fill-rule="evenodd" clip-rule="evenodd"
              d="M30.5 5.5C16.6929 5.5 5.5 16.6929 5.5 30.5C5.5 44.3071 16.6929 55.5 30.5 55.5C44.3071 55.5 55.5 44.3071 55.5 30.5C55.5 16.6929 44.3071 5.5 30.5 5.5ZM0.5 30.5C0.5 13.9315 13.9315 0.5 30.5 0.5C47.0685 0.5 60.5 13.9315 60.5 30.5C60.5 47.0685 47.0685 60.5 30.5 60.5C13.9315 60.5 0.5 47.0685 0.5 30.5Z"/>
    </symbol>
    <symbol id="social-network-icon-facebook" viewBox="0 0 61 61">
        <path d="M31.6013 45.1654V31.6293H36.3627L37.0463 26.4654H31.6013V23.1654C31.6013 21.6681 32.0256 20.6522 34.2335 20.6522H37.0463V16.0383C36.5592 15.9772 34.8935 15.832 32.9449 15.832C28.8906 15.832 26.1092 18.2383 26.1092 22.6612V26.473H21.332V31.6369H26.117V45.1654H31.6013Z"/>
    </symbol>
    <symbol id="social-network-icon-youtube" viewBox="0 0 61 61">
        <svg version="1.1" id="Layer_1" xmlns="http://www.w3.org/2000/svg" xmlns:xlink="http://www.w3.org/1999/xlink" x="15px" y="15px"
             viewBox="0 0 310 310" style="enable-background:new 0 0 310 310;" xml:space="preserve" width="30" height="30">
    <g id="XMLID_822_">
	<path id="XMLID_823_" d="M297.917,64.645c-11.19-13.302-31.85-18.728-71.306-18.728H83.386c-40.359,0-61.369,5.776-72.517,19.938
		C0,79.663,0,100.008,0,128.166v53.669c0,54.551,12.896,82.248,83.386,82.248h143.226c34.216,0,53.176-4.788,65.442-16.527
		C304.633,235.518,310,215.863,310,181.835v-53.669C310,98.471,309.159,78.006,297.917,64.645z M199.021,162.41l-65.038,33.991
		c-1.454,0.76-3.044,1.137-4.632,1.137c-1.798,0-3.592-0.484-5.181-1.446c-2.992-1.813-4.819-5.056-4.819-8.554v-67.764
		c0-3.492,1.822-6.732,4.808-8.546c2.987-1.814,6.702-1.938,9.801-0.328l65.038,33.772c3.309,1.718,5.387,5.134,5.392,8.861
		C204.394,157.263,202.325,160.684,199.021,162.41z"/>
</g><g>
</g><g>
</g><g>
</g><g>
</g><g>
</g><g>
</g><g>
</g><g>
</g><g>
</g><g>
</g><g>
</g><g>
</g><g></g>
<g></g>
<g></g>
</svg>
    </symbol>
    <symbol id="social-network-icon-instagram" viewBox="0 0 61 61">
        <path fill-rule="evenodd" clip-rule="evenodd"
              d="M26.8667 15.832H34.1556C42.1556 15.832 45.1814 18.8542 45.1908 26.8542L45.1994 34.1432C45.2088 42.1432 42.1901 45.1653 34.1901 45.1653H26.9012C18.9012 45.1653 15.8754 42.1432 15.866 34.1432L15.8574 26.8542C15.848 18.8542 18.8667 15.832 26.8667 15.832ZM40.0304 22.7661C40.0316 23.7478 39.2366 24.5438 38.2547 24.5438C37.2729 24.5438 36.476 23.7478 36.4749 22.7661C36.4737 21.7843 37.2687 20.9883 38.2506 20.9883C39.2324 20.9883 40.0293 21.7843 40.0304 22.7661ZM30.6084 22.9438C26.3417 22.9438 22.9679 26.3216 22.973 30.5883C22.9778 34.6771 26.3595 38.0549 30.4484 38.0549C34.5373 38.0549 37.9111 34.6771 37.9063 30.5883C38.0791 26.3216 34.6973 22.9438 30.6084 22.9438ZM30.6228 35.2105C27.9562 35.2105 25.9981 33.077 25.9952 30.5883C25.992 27.9217 28.1231 25.9659 30.612 25.9659C33.2786 25.9659 35.2367 28.0994 35.2396 30.5883C35.2426 33.077 33.1117 35.2105 30.6228 35.2105Z"/>
    </symbol>
    <symbol id="social-network-icon-telegram" viewBox="0 0 61 61">
        <path d="M13.1026 29.6375C16.338 27.9536 19.9495 26.5481 23.3239 25.1354C29.1292 22.8215 34.9575 20.5478 40.8447 18.4309C41.9901 18.0703 44.0482 17.7176 44.25 19.3216C44.1394 21.592 43.6849 23.8492 43.3731 26.1064C42.5817 31.0702 41.667 36.017 40.775 40.9644C40.4677 42.6124 38.283 43.4654 36.8851 42.4108C33.5257 40.2666 30.1405 38.1431 26.824 35.9492C25.7376 34.906 26.745 33.408 27.7152 32.6631C30.4822 30.0864 33.4165 27.8972 36.0388 25.1874C36.7462 23.5733 34.6562 24.9336 33.9668 25.3504C30.1788 27.817 26.4836 30.4343 22.49 32.6021C20.45 33.6632 18.0724 32.7564 16.0334 32.1643C14.2051 31.449 11.5261 30.7284 13.1025 29.6378L13.1026 29.6375Z"/>
    </symbol>
    <symbol id="social-network-icon-share" viewBox="0 0 61 61">
        <path fill-rule="evenodd" clip-rule="evenodd"
              d="M32.67 33.4069C32.67 33.7855 33.087 34.01 33.3958 33.7976L42.7959 27.3305C43.068 27.1433 43.068 26.7364 42.7959 26.5492L33.3958 20.0821C33.087 19.8697 32.67 20.0942 32.67 20.4728V23.5001C24 23.3565 17.0029 30.6094 17.0029 37.505C16.9508 37.9991 17.602 38.1906 17.8609 37.7688C22.5 30.2113 30.0029 29.6094 32.67 30.2962V33.4069Z"/>
    </symbol>
    <symbol id="social-network-icon-twitter" viewBox="0 0 61 61">
        <path d="M25.1199 43C36.0634 43 42.049 33.7657 42.049 25.7577C42.049 25.4954 42.049 25.2343 42.0316 24.9744C43.196 24.1166 44.2012 23.0544 45 21.8376C43.9142 22.3279 42.7622 22.6493 41.5826 22.7911C42.8248 22.0338 43.7544 20.8426 44.1984 19.4393C43.0305 20.1452 41.7528 20.6427 40.4203 20.9102C39.5232 19.9387 38.3368 19.2953 37.0446 19.0798C35.7523 18.8642 34.4264 19.0884 33.2719 19.7177C32.1174 20.347 31.1987 21.3463 30.658 22.561C30.1173 23.7756 29.9847 25.1379 30.2808 26.4371C27.9152 26.3162 25.6011 25.6901 23.4886 24.5993C21.3761 23.5085 19.5123 21.9775 18.0184 20.1056C17.2575 21.4397 17.0245 23.0189 17.3667 24.5219C17.709 26.0248 18.6007 27.3383 19.8605 28.1951C18.9136 28.1668 17.9873 27.9067 17.16 27.4366V27.5134C17.1604 28.9125 17.6359 30.2684 18.5059 31.3511C19.376 32.4339 20.5869 33.1767 21.9334 33.4538C21.0575 33.6971 20.1384 33.7327 19.2468 33.5577C19.6272 34.7618 20.3674 35.8146 21.3641 36.5692C22.3607 37.3237 23.564 37.7422 24.8056 37.7661C23.5719 38.7537 22.1593 39.4839 20.6483 39.9149C19.1374 40.3459 17.5578 40.4693 16 40.2779C18.721 42.0563 21.8869 42.9996 25.1199 42.9953"/>
    </symbol>
    <symbol id="social-network-icon-vk" viewBox="0 0 61 61">
        <path fill-rule="evenodd" clip-rule="evenodd"
              d="M18.0385 18.0385C16 20.0771 16 23.358 16 29.92V31.08C16 37.642 16 40.9229 18.0385 42.9615C20.0771 45 23.358 45 29.92 45H31.08C37.642 45 40.9229 45 42.9615 42.9615C45 40.9229 45 37.642 45 31.08V29.92C45 23.358 45 20.0771 42.9615 18.0385C40.9229 16 37.642 16 31.08 16H29.92C23.358 16 20.0771 16 18.0385 18.0385ZM20.8937 24.8208C21.0508 32.3608 24.8208 36.8921 31.4304 36.8921H31.8051V32.5783C34.2338 32.82 36.0703 34.5963 36.8074 36.8921H40.2392C39.2967 33.4604 36.8195 31.5633 35.2728 30.8383C36.8195 29.9442 38.9945 27.7692 39.514 24.8208H36.3965C35.7198 27.2133 33.7142 29.3883 31.8051 29.5938V24.8208H28.6874V33.1825C26.7541 32.6992 24.3133 30.355 24.2046 24.8208H20.8937Z"/>
    </symbol>
    <symbol id="social-network-icon-rss" viewBox="100 -100 500 1100">
        <path d="M493 652H392c0-134-111-244-244-244V307c189 0 345 156 345 345zm71 0c0-228-188-416-416-416V132c285 0 520 235 520 520z"/>
        <circle cx="219" cy="581" r="71"/></symbol>
</svg>
