<svg xmlns="http://www.w3.org/2000/svg">
    <symbol id="icon-apple" viewBox="0 0 50 50">
        <path d="M34.5205 0C34.5205 0 29.9271 0.021337 26.6223 4.35091C23.6835 8.20161 24.4319 11.4955 24.4319 11.4955C24.4319 11.4955 28.416 12.1805 31.9216 7.99297C35.2038 4.0708 34.5205 0 34.5205 0Z"/>
        <path d="M27.4875 13.5571C26.4061 13.9904 25.5173 14.3465 24.8515 14.3465C24.0224 14.3465 23.0222 13.9634 21.8597 13.5181C20.2464 12.9003 18.3203 12.1628 16.1064 12.1632C10.2468 12.1632 4 17.3791 4 27.3221C4 37.4286 11.3803 50.0008 17.2224 50C18.1312 50 19.2566 49.5944 20.5042 49.1448C22.0566 48.5855 23.7981 47.958 25.5473 47.958C27.1158 47.958 28.4757 48.4632 29.818 48.9618C31.1254 49.4475 32.416 49.9269 33.866 49.9269C40.2636 49.9269 45 36.6728 45 36.6728C45 36.6728 38.2242 34.0649 38.2242 26.4974C38.2242 19.7891 43.6632 17.0242 43.6632 17.0242C43.6632 17.0242 40.8822 12.0236 33.8134 12.0236C31.3145 12.0236 29.168 12.8836 27.4875 13.5571Z"/>
    </symbol>
    <symbol id="icon-google" viewBox="0 0 43 50">
        <path fill-rule="evenodd" clip-rule="evenodd"
              d="M31.604 18.0679L25.2284 23.5546L2.08008 8.45401C3.6985 6.22048 6.83726 5.24938 9.63271 6.65748L31.604 18.0679ZM1.3433 44.1896L21.7943 26.5156L1 12.9688V42.1503C1 42.8786 1.09809 43.5583 1.3433 44.1896ZM9.63064 47.2996L34.1522 34.5782L25.6187 29.043L4.33398 47.3967C5.90336 48.1736 7.86509 48.2707 9.63064 47.2996ZM38.6161 32.2933L38.8613 32.1476C43.079 29.9627 43.079 23.9904 38.8613 21.8054L35.8207 20.2031L29.0527 26.0297L38.6161 32.2933Z"/>
    </symbol>
</svg>
