<svg width="437" height="235" viewBox="0 0 437 235" fill="none" xmlns="http://www.w3.org/2000/svg">
    <path d="M436.415 63.2981C436.414 63.272 436.422 63.2472 436.419 63.2211C436.408 63.1602 436.393 63.1001 436.374 63.0411C436.351 62.8871 436.293 62.7405 436.204 62.613C436.175 62.5577 436.143 62.5042 436.108 62.453C436.046 62.3786 435.977 62.3105 435.902 62.2497C435.758 62.0973 435.574 61.9887 435.371 61.9364L235.691 0.0677224C235.499 0.00804738 235.298 -0.012498 235.099 0.00731112C234.899 0.0271203 234.706 0.0868784 234.53 0.183022L0.7834 127.398C0.7734 127.404 0.7668 127.413 0.757 127.418C0.643963 127.482 0.539753 127.561 0.447 127.652C0.411405 127.692 0.378023 127.734 0.347 127.778C0.291305 127.842 0.241127 127.911 0.197 127.984C0.171032 128.036 0.148126 128.089 0.1284 128.144C0.0954211 128.218 0.0683684 128.294 0.0475 128.372C0.035984 128.43 0.0280028 128.489 0.0236 128.548C0.0124195 128.604 0.00453898 128.66 4.92656e-08 128.716V171.102C-8.20103e-05 171.423 0.10235 171.734 0.292299 171.992C0.482248 172.25 0.749737 172.44 1.0556 172.535L200.079 234.2C200.33 234.377 200.629 234.471 200.936 234.471C200.985 234.469 201.034 234.464 201.083 234.457C201.116 234.459 201.148 234.471 201.181 234.471C201.431 234.472 201.678 234.409 201.898 234.289L435.644 107.073C435.881 106.944 436.078 106.754 436.216 106.522C436.354 106.29 436.427 106.025 436.427 105.756V63.3695C436.427 63.3447 436.417 63.3226 436.415 63.2981ZM431.089 63.7509L201.245 188.842C201.041 188.798 200.829 188.798 200.625 188.842L5.3393 128.335L235.407 3.12042L431.089 63.7509ZM3 130.75L199.436 191.614V230.86L3 169.997V130.75ZM202.436 230.58V191.609L433.427 65.8934V104.864L202.436 230.58Z"
          fill="black"/>
    <path d="M135.487 181.196C134.393 180.801 133.22 180.674 132.067 180.826C130.914 180.978 129.815 181.404 128.861 182.069C127.844 182.896 127.037 183.951 126.504 185.148C125.972 186.346 125.729 187.651 125.795 188.96C125.795 194.739 130.009 200.759 135.188 202.38C136.026 202.648 136.901 202.787 137.781 202.793C139.229 202.81 140.643 202.359 141.814 201.507C142.83 200.68 143.637 199.625 144.17 198.428C144.703 197.231 144.945 195.925 144.879 194.616C144.879 188.837 140.665 182.817 135.487 181.196ZM141.222 200.701C140.393 201.271 139.44 201.635 138.442 201.761C137.444 201.887 136.431 201.771 135.487 201.425C130.694 199.926 126.795 194.334 126.795 188.96C126.723 187.808 126.926 186.654 127.388 185.596C127.85 184.538 128.558 183.605 129.452 182.875C130.453 182.15 131.662 181.767 132.898 181.784C133.675 181.79 134.447 181.914 135.188 182.151C139.981 183.65 143.879 189.242 143.879 194.616C143.952 195.769 143.748 196.922 143.286 197.98C142.824 199.038 142.116 199.971 141.222 200.701Z"
          fill="black"/>
    <path d="M135.486 178.558C134.127 178.065 132.669 177.906 131.236 178.094C129.802 178.282 128.434 178.812 127.248 179.639C124.825 181.419 123.436 184.548 123.436 188.222C123.436 195.456 128.708 202.991 135.188 205.017C136.233 205.351 137.322 205.525 138.419 205.533C140.216 205.554 141.972 204.994 143.425 203.936C145.848 202.156 147.237 199.027 147.237 195.353C147.237 188.118 141.966 180.584 135.486 178.558ZM142.833 203.13C141.772 203.862 140.552 204.328 139.273 204.49C137.995 204.652 136.696 204.505 135.486 204.062C129.393 202.158 124.436 195.051 124.436 188.222C124.436 184.821 125.645 182.058 127.84 180.445C129.124 179.514 130.674 179.023 132.26 179.045C133.254 179.052 134.241 179.21 135.188 179.513C141.28 181.418 146.238 188.524 146.238 195.353C146.237 198.755 145.028 201.517 142.833 203.13V203.13Z"
          fill="black"/>
    <path d="M135.487 185.592C135.13 185.465 134.748 185.426 134.372 185.477C133.997 185.529 133.64 185.67 133.33 185.888C133.003 186.15 132.742 186.486 132.569 186.868C132.396 187.249 132.316 187.667 132.335 188.086C132.356 189.078 132.709 190.036 133.336 190.806V196.595C133.343 197.068 133.493 197.527 133.766 197.913C134.039 198.3 134.422 198.595 134.865 198.76L135.509 198.961C135.66 199.008 135.817 199.033 135.975 199.033C136.257 199.036 136.532 198.948 136.761 198.782C136.949 198.634 137.099 198.444 137.199 198.227C137.3 198.01 137.347 197.772 137.338 197.533V191.839C137.666 191.579 137.927 191.245 138.101 190.865C138.275 190.485 138.357 190.069 138.339 189.651C138.327 188.766 138.048 187.906 137.539 187.182C137.03 186.457 136.315 185.904 135.487 185.592ZM136.603 191.122C136.523 191.165 136.456 191.229 136.409 191.306C136.363 191.384 136.338 191.473 136.338 191.564V197.533C136.346 197.615 136.334 197.697 136.305 197.774C136.275 197.851 136.229 197.92 136.168 197.976C136.114 198.008 136.054 198.028 135.992 198.033C135.929 198.038 135.866 198.028 135.808 198.005L135.164 197.804C134.924 197.702 134.719 197.535 134.573 197.32C134.426 197.106 134.344 196.854 134.336 196.594V190.624C134.337 190.504 134.293 190.387 134.214 190.297C133.673 189.684 133.363 188.902 133.335 188.085C133.317 187.823 133.36 187.56 133.462 187.318C133.564 187.077 133.722 186.862 133.923 186.693C134.139 186.538 134.399 186.457 134.665 186.462C134.842 186.463 135.019 186.492 135.188 186.547C135.81 186.799 136.344 187.226 136.727 187.778C137.109 188.329 137.322 188.98 137.339 189.65C137.364 189.94 137.308 190.23 137.178 190.49C137.048 190.75 136.849 190.969 136.603 191.123V191.122Z"
          fill="black"/>
    <path d="M165.913 190.099C164.82 189.703 163.647 189.576 162.494 189.728C161.341 189.88 160.241 190.307 159.287 190.972C158.271 191.799 157.464 192.854 156.931 194.051C156.398 195.248 156.156 196.554 156.222 197.863C156.222 203.642 160.436 209.662 165.614 211.283C166.453 211.551 167.328 211.69 168.208 211.696C169.656 211.713 171.07 211.262 172.24 210.41C173.256 209.583 174.064 208.528 174.596 207.331C175.129 206.134 175.372 204.828 175.305 203.519C175.306 197.74 171.092 191.72 165.913 190.099ZM171.649 209.604C170.82 210.174 169.867 210.537 168.869 210.663C167.871 210.789 166.858 210.674 165.913 210.328C161.12 208.829 157.222 203.237 157.222 197.863C157.149 196.71 157.353 195.557 157.815 194.499C158.277 193.441 158.984 192.508 159.879 191.778C160.88 191.053 162.088 190.67 163.324 190.687C164.102 190.693 164.874 190.817 165.614 191.054C170.407 192.553 174.306 198.145 174.306 203.519C174.378 204.671 174.175 205.825 173.713 206.883C173.251 207.941 172.543 208.874 171.649 209.604Z"
          fill="black"/>
    <path d="M165.913 187.46C164.554 186.967 163.096 186.809 161.663 186.997C160.229 187.185 158.862 187.715 157.676 188.542C155.253 190.322 153.864 193.451 153.864 197.125C153.864 204.359 159.135 211.893 165.614 213.92C166.659 214.254 167.749 214.428 168.846 214.435C170.643 214.457 172.4 213.897 173.853 212.839C176.276 211.059 177.665 207.929 177.665 204.256C177.665 197.022 172.394 189.487 165.913 187.46ZM173.261 212.033C172.2 212.765 170.979 213.231 169.701 213.393C168.422 213.555 167.123 213.408 165.913 212.965C159.821 211.06 154.863 203.954 154.863 197.125C154.863 193.723 156.072 190.96 158.268 189.347C159.551 188.416 161.102 187.924 162.688 187.946C163.681 187.953 164.668 188.111 165.614 188.415C171.708 190.32 176.665 197.426 176.665 204.255C176.665 207.657 175.456 210.42 173.261 212.033V212.033Z"
          fill="black"/>
    <path d="M165.913 194.496C165.556 194.369 165.174 194.33 164.799 194.381C164.424 194.433 164.066 194.574 163.757 194.792C163.43 195.054 163.169 195.39 162.996 195.772C162.823 196.153 162.743 196.571 162.762 196.989C162.783 197.982 163.135 198.94 163.763 199.709V205.499C163.77 205.972 163.92 206.431 164.193 206.817C164.466 207.204 164.85 207.499 165.293 207.664L165.936 207.865C166.087 207.912 166.244 207.937 166.402 207.937C166.684 207.94 166.959 207.852 167.187 207.687C167.376 207.539 167.526 207.349 167.626 207.131C167.726 206.914 167.774 206.676 167.765 206.437V200.743C168.092 200.483 168.354 200.149 168.528 199.769C168.702 199.389 168.783 198.973 168.766 198.555C168.753 197.67 168.475 196.81 167.966 196.086C167.457 195.361 166.742 194.808 165.913 194.496ZM167.029 200.026C166.949 200.069 166.883 200.133 166.836 200.21C166.789 200.288 166.765 200.377 166.765 200.468V206.436C166.772 206.518 166.761 206.601 166.732 206.678C166.702 206.755 166.656 206.824 166.596 206.88C166.542 206.913 166.482 206.932 166.419 206.937C166.357 206.942 166.294 206.933 166.236 206.909L165.591 206.708C165.352 206.607 165.147 206.439 165 206.224C164.853 206.01 164.771 205.758 164.763 205.498V199.528C164.763 199.408 164.72 199.292 164.641 199.201C164.1 198.588 163.79 197.806 163.762 196.989C163.743 196.727 163.787 196.464 163.889 196.222C163.991 195.981 164.149 195.766 164.35 195.597C164.566 195.442 164.826 195.361 165.091 195.366C165.269 195.368 165.446 195.396 165.615 195.451C166.237 195.703 166.771 196.13 167.153 196.682C167.536 197.233 167.749 197.884 167.766 198.554C167.791 198.844 167.735 199.134 167.605 199.394C167.475 199.654 167.276 199.873 167.03 200.027L167.029 200.026Z"
          fill="black"/>
    <path d="M111.328 176.644L68.8771 163.367C68.4624 163.219 68.0184 163.173 67.5822 163.232C67.146 163.291 66.7304 163.455 66.3703 163.708C65.9886 164.014 65.6846 164.406 65.4832 164.853C65.2817 165.299 65.1885 165.786 65.2111 166.275V173.522C65.2248 174.567 65.5535 175.584 66.1542 176.44C66.755 177.295 67.5998 177.949 68.5783 178.317L111.03 191.594C111.343 191.694 111.669 191.746 111.998 191.748C112.551 191.754 113.091 191.58 113.537 191.254C113.918 190.947 114.222 190.555 114.424 190.109C114.625 189.663 114.719 189.175 114.696 188.686V181.439C114.682 180.394 114.353 179.377 113.752 178.522C113.151 177.667 112.307 177.012 111.328 176.644ZM113.695 188.686C113.719 189.018 113.663 189.351 113.532 189.658C113.402 189.964 113.2 190.235 112.944 190.448C112.71 190.607 112.441 190.708 112.16 190.741C111.878 190.774 111.593 190.739 111.328 190.639L68.8771 177.362C68.1071 177.051 67.4446 176.522 66.971 175.84C66.4974 175.158 66.2333 174.352 66.2111 173.522V166.275C66.1877 165.943 66.2436 165.61 66.3741 165.304C66.5047 164.997 66.7062 164.726 66.9621 164.513C67.2392 164.313 67.5736 164.209 67.9152 164.214C68.1404 164.216 68.364 164.252 68.5783 164.322L111.03 177.599C111.804 177.904 112.471 178.431 112.946 179.115C113.42 179.798 113.681 180.607 113.696 181.439L113.695 188.686Z"
          fill="black"/>
</svg>
