<svg xmlns="http://www.w3.org/2000/svg">
    <symbol id="als-logo" viewBox="0 0 100 46">
        <path d="M99 1v32H1V1h98m1-1H0v34h100V0z"/>
        <path d="M80.649 22.75l-.601 4.261h-.249l-.337-4.136L78.811 4H77l1.499 26h2.619L83.6 4h-2.072zM67.569 4H64v26h3.439C69.415 30 70 28.84 70 27V6.766C70 4.924 69.545 4 67.569 4zM68 27.462c0 1.323.06 1.538-1 1.538h-1V5h1c1.06 0 1 .216 1 1.537v20.925zM72 30h4v-1h-2V16h1.341v-1H74V5h2V4h-4zM18 4l-2 26h1.525l.736-8H20l.226 8h2.076L20.85 4H18zm.333 17l.599-11.745.298-3.156h.57l.2 3.156V21h-1.667zM43 4h-2v26h4v-1h-2zM46 30h4v-1h-2V16h1.326v-1H48V5h1.989V4H46zM30.713 5h1.666v25h1.861V5h1.601V4h-5.128zM36.617 27.939c-.669 0-1.206.533-1.206 1.191 0 .663.537 1.193 1.206 1.193.667 0 1.205-.53 1.205-1.193 0-.657-.537-1.191-1.205-1.191zM55.709 4H51v26h3.94c1.249 0 2.045-1.002 2.06-2.094V17.631c0-1.254-.219-1.568-.666-1.821v-.564c.551-.276.666-.557.666-1.434v-8.23C57 4.66 56.652 4 55.709 4zM55 28.104c-.012.689-.057.832-.61.832h-1.403L53 16h1.406c.551 0 .594.301.594 1.422v10.682zm0-14.463c0 1.091.028 1.303-.551 1.359H53l-.014-10h1.447c.466 0 .567.216.567.792v7.849zM27.594 4H24v26h2V18h1.331c.61 0 .669.282.669 1v11h2l-.011-9.89c0-1.425.073-1.795-.724-2.259v-.603c.529-.057.735-.125.735-1.533V7c0-1.842-.446-3-2.406-3zM28 16c0 .805.019 1-.636 1H26V5l.839-.016C27.883 5 28 5.677 28 7v9zM59 30h4v-1h-2V16h1.336v-1H61V5h2V4h-4z"/>
        <path d="M3.502 39.842c0-.738-.004-1.08-1.098-1.08-.486 0-1 .261-1.387.576l-.405-.495c.468-.522 1.233-.828 1.917-.828.981 0 1.909.567 1.909 1.827 0 1.54-1.773 3.241-2.791 4.178h2.881v.792H.54v-.648c.99-1.027 2.962-2.755 2.962-4.322zm4.918 5.123c-1.863 0-2.386-1.963-2.386-3.476 0-1.512.522-3.475 2.386-3.475s2.386 1.963 2.386 3.475c0 1.513-.522 3.476-2.386 3.476zm0-6.275c-1.269 0-1.503 1.837-1.503 2.8 0 .964.234 2.81 1.503 2.81 1.27 0 1.504-1.846 1.504-2.81 0-.963-.234-2.8-1.504-2.8zm6.616 1.103c0-.724-.106-1.031-1.118-1.031-.486 0-1 .261-1.387.576l-.405-.495c.468-.522 1.233-.828 1.917-.828.981 0 1.909.567 1.909 1.827 0 1.54-1.773 3.241-2.791 4.178h2.881v.792h-3.988v-.648c.991-1.027 2.982-2.804 2.982-4.371zm5.088.049c0-.738.047-1.08-1.098-1.08-.486 0-1 .261-1.387.576l-.405-.495c.468-.522 1.233-.828 1.917-.828.981 0 1.909.567 1.909 1.827 0 1.54-1.773 3.241-2.791 4.178h2.881v.792h-3.988v-.648c.99-1.027 2.962-2.755 2.962-4.322z"/>
    </symbol>
    <symbol id="clear-cross" viewBox="0 0 16.5 16.5">
        <path fill-rule="evenodd" clip-rule="evenodd"
              d="M2.13388 0.366117C1.64573 -0.122039 0.854272 -0.122039 0.366117 0.366117C-0.122039 0.854272 -0.122039 1.64573 0.366117 2.13388L6.48223 8.25L0.366117 14.3661C-0.122039 14.8543 -0.122039 15.6457 0.366117 16.1339C0.854272 16.622 1.64573 16.622 2.13388 16.1339L8.25 10.0178L14.3661 16.1339C14.8543 16.622 15.6457 16.622 16.1339 16.1339C16.622 15.6457 16.622 14.8543 16.1339 14.3661L10.0178 8.25L16.1339 2.13388C16.622 1.64573 16.622 0.854272 16.1339 0.366117C15.6457 -0.122039 14.8543 -0.122039 14.3661 0.366117L8.25 6.48223L2.13388 0.366117Z"/>
    </symbol>
    <symbol id="curve-arrow" viewBox="0 0 75 94">
        <path fill-rule="evenodd" clip-rule="evenodd"
              d="M57.482 45.418C63.666 35.896 68.13 22.36 68.675 3.099a3 3 0 1 1 5.998.17c-.569 20.111-5.25 34.78-12.16 45.417-6.917 10.65-15.942 17.065-24.86 20.86-8.885 3.78-17.653 4.959-24.162 5.204a79.45 79.45 0 0 1-4.456.055l12.407 14.394a3 3 0 0 1-4.858 3.522L1.244 74.06c-.972-1.341-1.434-3.363.109-5.83l11.932-19.075c1.326-2.12 3.036-2.23 4.4-1.376 1.695 1.06 1.748 2.863.61 4.51L7.952 68.82c.55-.007 4.72-.043 5.312-.066 6.028-.227 14.023-1.319 22.04-4.73 7.984-3.397 16-9.097 22.177-18.606Z"/>
    </symbol>
    <symbol id="expand-arrow" viewBox="0 0 20 12">
        <path fill-rule="evenodd" clip-rule="evenodd"
              d="M19.7072 1.70712L10.0001 11.4142L0.292969 1.70712L1.70718 0.292908L10.0001 8.5858L18.293 0.292908L19.7072 1.70712Z"/>
    </symbol>
    <symbol id="geolocation" viewBox="0 -5 30 40">
        <path d="M0.27361 0.273265L34.2592 11.3132L15.8593 15.859L11.3135 34.2588L0.27361 0.273265Z"/>
    </symbol>
    <symbol id="magnifying-glass" viewBox="0 0 17 17">
        <path fill-rule="evenodd" clip-rule="evenodd"
              d="M13.1065 7.55325C13.1065 10.6202 10.6202 13.1065 7.55325 13.1065C4.48627 13.1065 2 10.6202 2 7.55325C2 4.48627 4.48627 2 7.55325 2C10.6202 2 13.1065 4.48627 13.1065 7.55325ZM12.1409 13.5541C10.8691 14.5279 9.27875 15.1065 7.55325 15.1065C3.3817 15.1065 0 11.7248 0 7.55325C0 3.3817 3.3817 0 7.55325 0C11.7248 0 15.1065 3.3817 15.1065 7.55325C15.1065 9.27825 14.5282 10.8682 13.555 12.1398L16.703 15.2878C17.0935 15.6783 17.0935 16.3115 16.703 16.702C16.3125 17.0925 15.6793 17.0925 15.2888 16.702L12.1409 13.5541Z"/>
    </symbol>
    <symbol id="minus" viewBox="0 0 37 7">
        <path fill-rule="evenodd" clip-rule="evenodd"
              d="M0.5 3.5C0.5 1.567 2.067 1.39584e-06 4 1.31134e-06L34 0C35.933 -8.4494e-08 37.5 1.567 37.5 3.5C37.5 5.433 35.933 7 34 7L4 7C2.067 7 0.5 5.433 0.5 3.5Z"/>
    </symbol>
    <symbol id="ordered-list-bullet" viewBox="0 0 25 25">
        <path d="M12.5 0L25 12.5L12.5 25L0 12.5L12.5 0Z"/>
    </symbol>
    <symbol id="pagination-icon-border" viewBox="0 0 30 30">
        <path fill-rule="evenodd" clip-rule="evenodd"
              d="M15 0L30 15L15 30L0 15L15 0ZM7.07107 15L15 22.9289L22.9289 15L15 7.07107L7.07107 15Z"/>
    </symbol>
    <symbol id="pagination-icon-solid" viewBox="0 0 30 30">
        <path d="M15 0L30 15L15 30L0 15L15 0Z"/>
    </symbol>
    <symbol id="phone-icon" viewBox="0 0 116 116">
        <path d="M32.2344 83.2344C50.2227 101.34 71.9609 115.109 89.6562 115.109C97.5664 115.109 104.539 112.414 110.164 106.203C113.387 102.57 115.203 98.5273 115.203 94.4258C115.203 90.9102 113.855 87.5703 110.516 85.168L92.4102 72.2773C89.4219 70.168 86.9609 69.2305 84.7344 69.2305C81.8633 69.2305 79.3438 70.8711 76.5898 73.625L72.1953 77.9609C71.5508 78.6641 70.6719 78.8984 69.9102 78.8984C68.9727 78.8984 67.9766 78.5469 67.332 78.1953C63.582 76.0859 57.0195 70.4609 51.043 64.4258C45.0664 58.4492 39.4414 51.9453 37.332 48.1367C36.9219 47.4922 36.5703 46.5547 36.5703 45.6172C36.5703 44.8555 36.8633 44.0352 37.5078 43.332L41.9023 38.9375C44.6562 36.125 46.2969 33.6055 46.2969 30.7344C46.2969 28.5078 45.3008 26.0469 43.1914 23.1172L30.3594 5.07031C28.0156 1.78906 24.5586 0.382812 20.9258 0.382812C16.8242 0.382812 12.8398 2.08203 9.26562 5.42188C3.17188 11.0469 0.476562 18.0781 0.476562 25.9297C0.476562 43.6836 14.1875 65.2461 32.2344 83.2344Z"/>
    </symbol>
    <symbol id="plus" viewBox="0 0 37 37">
        <path fill-rule="evenodd" clip-rule="evenodd"
              d="M22.5 4C22.5 2.067 20.933 0.5 19 0.5C17.067 0.5 15.5 2.067 15.5 4V15.5H4C2.067 15.5 0.5 17.067 0.5 19C0.5 20.933 2.067 22.5 4 22.5H15.5V34C15.5 35.933 17.067 37.5 19 37.5C20.933 37.5 22.5 35.933 22.5 34V22.5H34C35.933 22.5 37.5 20.933 37.5 19C37.5 17.067 35.933 15.5 34 15.5H22.5V4Z"/>
    </symbol>
    <symbol id="unordered-list-bullet" viewBox="0 0 17 17">
        <path fill-rule="evenodd" clip-rule="evenodd"
              d="M17 8.5L8.5 0L0 8.5L8.5 17L17 8.5ZM12.8812 8.49938L8.5 4.11816L4.11878 8.49938L8.5 12.8806L12.8812 8.49938Z"
        />
    </symbol>
    <symbol id="visually-impaired-mode" viewBox="0 0 38 22">
        <path fill-rule="evenodd" clip-rule="evenodd"
              d="M37.0628 2.44351C37.4458 1.8691 37.2906 1.09301 36.7162 0.71007C36.1417 0.327129 35.3657 0.482347 34.9827 1.05676L29.2184 9.70326H20.1707C18.8883 9.70326 17.8084 10.5703 17.4853 11.7502L14.6731 11.7502C14.3496 10.5709 13.27 9.7045 11.9881 9.7045H4.60825L9.44876 2.44374C9.8317 1.86933 9.67648 1.09325 9.10207 0.710305C8.52766 0.327364 7.75157 0.482582 7.36863 1.05699L1.33117 10.1132C0.53269 10.6026 0 11.4834 0 12.4885V14.0225C0 18.1017 3.30685 21.4086 7.38606 21.4086C11.3891 21.4086 14.6484 18.2241 14.7687 14.2502L17.3902 14.2502C17.5112 18.2235 20.7702 21.4073 24.7728 21.4073C28.852 21.4073 32.1588 18.1005 32.1588 14.0213V12.4873C32.1588 11.8222 31.9257 11.2117 31.5366 10.7329L37.0628 2.44351ZM20.1707 12.2033C20.0139 12.2033 19.8867 12.3304 19.8867 12.4873V14.0213C19.8867 16.7198 22.0743 18.9073 24.7728 18.9073C27.4713 18.9073 29.6588 16.7198 29.6588 14.0213V12.4873C29.6588 12.3304 29.5317 12.2033 29.3748 12.2033H20.1707ZM2.78401 12.2045C2.62716 12.2045 2.5 12.3317 2.5 12.4885V14.0225C2.5 16.721 4.68756 18.9086 7.38606 18.9086C10.0846 18.9086 12.2721 16.721 12.2721 14.0225V12.4885C12.2721 12.3317 12.145 12.2045 11.9881 12.2045H2.78401Z"
        />
    </symbol>
</svg>
