<svg width="66" height="70" viewBox="0 0 66 70" fill="none" xmlns="http://www.w3.org/2000/svg">
<path fill-rule="evenodd" clip-rule="evenodd" d="M51.5935 67.9731C50.0284 69.7335 48.2995 70.1797 46.4068 69.3118L29.493 60.6582C28.0689 59.8547 28.1243 58.0705 29.0838 56.9842C30.249 55.6649 31.5855 56.1298 32.9674 56.7242L45.3847 63.3152C44.3823 56.3744 42.7306 47.1011 39.799 40.0317C33.9327 25.8854 22.795 12.1702 1.75824 5.49872C0.434499 5.07892 -0.228154 3.65567 0.278158 2.3198C0.78447 0.983934 2.26802 0.241316 3.59176 0.661117C26.4197 7.90061 38.3794 22.9513 44.5659 37.8695C47.6607 45.3325 49.3052 54.2272 50.2167 59.368C50.3979 60.3901 50.7544 62.3476 50.7544 62.3476L60.5197 53.7591C61.2554 53.0195 62.7067 51.3197 64.4368 52.5535C65.822 53.5413 65.3789 55.1575 64.4195 56.2438L51.5935 67.9731Z" fill="#00CC69"/>
</svg>
