<svg width="437" height="334" viewBox="0 0 437 334" fill="none" xmlns="http://www.w3.org/2000/svg">
    <path d="M436.415 63.2971C436.414 63.271 436.422 63.2461 436.419 63.22C436.387 63.0951 436.356 62.9702 436.324 62.8452C436.26 62.7098 436.188 62.5785 436.107 62.4519C436.047 62.3795 435.979 62.313 435.906 62.2532C435.867 62.2133 435.826 62.1756 435.783 62.1404C435.657 62.0512 435.518 61.9822 435.371 61.9358L235.69 0.0676072C235.499 0.00802364 235.298 -0.0124824 235.098 0.00730745C234.899 0.0270973 234.705 0.0867793 234.529 0.182807L0.7832 127.398C0.659074 127.466 0.545302 127.552 0.4453 127.652C0.412135 127.69 0.381023 127.729 0.3521 127.77C0.293735 127.837 0.241426 127.908 0.1958 127.984C0.170363 128.034 0.148022 128.087 0.1289 128.14C0.0952346 128.215 0.0678072 128.292 0.0469001 128.371C0.0354331 128.429 0.0274521 128.488 0.0230001 128.547C0.0120201 128.602 0.00433997 128.659 6.08345e-08 128.715V269.919C-9.11338e-05 270.239 0.10235 270.551 0.29232 270.809C0.482291 271.067 0.74981 271.257 1.0557 271.352L200.079 333.016C200.33 333.193 200.629 333.287 200.936 333.287C200.985 333.285 201.034 333.28 201.083 333.272C201.116 333.275 201.148 333.287 201.181 333.287C201.431 333.287 201.678 333.225 201.897 333.105L435.644 205.89C435.881 205.761 436.078 205.571 436.216 205.339C436.354 205.107 436.427 204.842 436.427 204.572V63.3684C436.427 63.3435 436.417 63.3215 436.415 63.2971ZM431.089 63.7495L201.245 188.842C201.041 188.798 200.829 188.798 200.625 188.842L5.3379 128.334L235.407 3.12031L431.089 63.7495ZM2.9999 130.75L199.436 191.614V329.677L2.9999 268.814V130.75ZM202.436 329.397V191.609L433.427 65.8923V203.681L202.436 329.397Z"
          fill="black"/>
    <path d="M135.081 199.562C133.987 199.166 132.815 199.039 131.661 199.191C130.508 199.343 129.408 199.77 128.454 200.435C127.438 201.262 126.631 202.317 126.098 203.514C125.566 204.711 125.323 206.017 125.389 207.325C125.389 213.105 129.603 219.124 134.782 220.745C135.621 221.014 136.496 221.153 137.376 221.159C138.824 221.176 140.238 220.725 141.408 219.872C142.425 219.045 143.232 217.991 143.765 216.793C144.297 215.596 144.54 214.29 144.474 212.982C144.474 207.202 140.26 201.183 135.081 199.562ZM140.816 219.067C139.987 219.637 139.034 220 138.036 220.126C137.039 220.252 136.025 220.137 135.081 219.79C130.288 218.291 126.389 212.699 126.389 207.325C126.316 206.173 126.52 205.02 126.982 203.961C127.444 202.903 128.152 201.97 129.047 201.24C130.048 200.515 131.256 200.132 132.492 200.15C133.27 200.155 134.042 200.279 134.782 200.517C139.575 202.016 143.474 207.608 143.474 212.982C143.546 214.134 143.343 215.287 142.881 216.346C142.418 217.404 141.71 218.337 140.816 219.067Z"
          fill="black"/>
    <path d="M135.081 196.924C133.722 196.432 132.264 196.273 130.83 196.462C129.396 196.65 128.029 197.18 126.842 198.006C124.42 199.786 123.031 202.914 123.031 206.588C123.031 213.823 128.303 221.358 134.782 223.384C135.827 223.718 136.917 223.892 138.014 223.899C139.811 223.921 141.567 223.361 143.02 222.303C145.443 220.523 146.832 217.394 146.832 213.72C146.832 206.485 141.561 198.951 135.081 196.924ZM142.427 221.497C141.366 222.229 140.146 222.695 138.868 222.857C137.589 223.019 136.291 222.872 135.081 222.429C128.988 220.524 124.031 213.418 124.031 206.588C124.031 203.187 125.24 200.425 127.435 198.812C128.719 197.88 130.269 197.388 131.856 197.41C132.849 197.417 133.836 197.575 134.782 197.879C140.875 199.785 145.832 206.891 145.832 213.72C145.832 217.121 144.623 219.884 142.427 221.497Z"
          fill="black"/>
    <path d="M135.081 203.959C134.724 203.832 134.342 203.793 133.967 203.844C133.592 203.896 133.234 204.037 132.925 204.255C132.598 204.517 132.337 204.853 132.164 205.235C131.991 205.616 131.911 206.034 131.93 206.452C131.951 207.445 132.303 208.402 132.93 209.171V214.961C132.937 215.434 133.087 215.894 133.36 216.28C133.633 216.666 134.016 216.961 134.46 217.126L135.103 217.327C135.254 217.375 135.411 217.399 135.569 217.4C135.851 217.402 136.127 217.314 136.355 217.149C136.543 217.001 136.693 216.81 136.794 216.593C136.894 216.376 136.941 216.139 136.932 215.9V210.205C137.26 209.945 137.521 209.612 137.695 209.232C137.869 208.851 137.95 208.435 137.932 208.018C137.92 207.133 137.641 206.273 137.133 205.549C136.624 204.825 135.909 204.271 135.081 203.959ZM136.197 209.489C136.117 209.532 136.05 209.596 136.004 209.673C135.957 209.751 135.933 209.84 135.933 209.931V215.9C135.94 215.982 135.929 216.064 135.899 216.141C135.87 216.218 135.823 216.287 135.763 216.343C135.709 216.376 135.649 216.395 135.586 216.4C135.524 216.405 135.461 216.396 135.403 216.373L134.758 216.171C134.519 216.07 134.313 215.902 134.167 215.688C134.02 215.473 133.938 215.221 133.93 214.961V208.991C133.93 208.871 133.887 208.755 133.809 208.664C133.268 208.052 132.957 207.269 132.93 206.452C132.911 206.19 132.955 205.928 133.057 205.686C133.159 205.444 133.317 205.23 133.518 205.061C133.734 204.906 133.993 204.825 134.259 204.829C134.437 204.831 134.613 204.86 134.782 204.914C135.404 205.166 135.938 205.594 136.32 206.145C136.702 206.697 136.915 207.347 136.932 208.018C136.957 208.307 136.902 208.597 136.772 208.857C136.642 209.117 136.443 209.336 136.197 209.49V209.489Z"
          fill="black"/>
    <path d="M165.508 208.465C164.414 208.069 163.242 207.942 162.089 208.093C160.936 208.245 159.836 208.672 158.882 209.338C157.866 210.165 157.058 211.219 156.526 212.417C155.993 213.614 155.75 214.92 155.817 216.228C155.817 222.008 160.031 228.027 165.209 229.647C166.048 229.916 166.923 230.055 167.804 230.061C169.251 230.078 170.664 229.627 171.834 228.775C172.851 227.948 173.658 226.894 174.191 225.696C174.724 224.499 174.967 223.193 174.9 221.885C174.901 216.104 170.687 210.085 165.508 208.465ZM171.242 227.97C170.414 228.54 169.461 228.903 168.463 229.029C167.465 229.154 166.452 229.039 165.508 228.692C160.715 227.194 156.817 221.602 156.817 216.228C156.744 215.076 156.947 213.923 157.409 212.864C157.872 211.806 158.579 210.873 159.474 210.143C160.475 209.418 161.683 209.036 162.919 209.053C163.697 209.058 164.469 209.182 165.209 209.42C170.002 210.918 173.901 216.51 173.901 221.885C173.973 223.037 173.77 224.19 173.308 225.248C172.845 226.307 172.137 227.239 171.242 227.969V227.97Z"
          fill="black"/>
    <path d="M165.508 205.826C164.148 205.334 162.69 205.176 161.256 205.364C159.823 205.552 158.455 206.082 157.269 206.908C154.847 208.688 153.457 211.816 153.457 215.49C153.457 222.726 158.73 230.26 165.209 232.286C166.254 232.621 167.343 232.794 168.44 232.802C170.238 232.823 171.994 232.263 173.446 231.205C175.869 229.425 177.259 226.296 177.259 222.622C177.259 215.388 171.987 207.854 165.508 205.826ZM172.854 230.4C171.793 231.131 170.572 231.598 169.294 231.76C168.016 231.922 166.717 231.775 165.508 231.331C159.414 229.427 154.457 222.321 154.457 215.491C154.457 212.089 155.666 209.327 157.861 207.714C159.145 206.782 160.696 206.291 162.282 206.313C163.276 206.32 164.263 206.478 165.209 206.782C171.302 208.688 176.259 215.793 176.259 222.622C176.259 226.023 175.05 228.786 172.854 230.4Z"
          fill="black"/>
    <path d="M165.508 212.863C165.151 212.737 164.769 212.697 164.394 212.748C164.019 212.8 163.662 212.94 163.353 213.158C163.025 213.421 162.765 213.756 162.591 214.138C162.418 214.52 162.338 214.938 162.357 215.357C162.378 216.349 162.73 217.307 163.358 218.077V223.865C163.365 224.338 163.515 224.797 163.788 225.184C164.061 225.57 164.444 225.865 164.887 226.031L165.53 226.232C165.681 226.279 165.838 226.304 165.996 226.304C166.278 226.307 166.554 226.219 166.782 226.053C166.97 225.905 167.12 225.715 167.221 225.498C167.321 225.281 167.369 225.043 167.36 224.804V219.11C167.687 218.85 167.949 218.516 168.123 218.136C168.297 217.756 168.378 217.34 168.361 216.922C168.349 216.037 168.07 215.176 167.561 214.452C167.052 213.728 166.337 213.174 165.508 212.863ZM166.624 218.393C166.544 218.436 166.477 218.5 166.431 218.577C166.384 218.655 166.36 218.744 166.36 218.835V224.804C166.367 224.886 166.356 224.968 166.326 225.045C166.297 225.122 166.25 225.191 166.19 225.247C166.136 225.279 166.075 225.299 166.013 225.304C165.951 225.309 165.888 225.299 165.83 225.276L165.186 225.075C164.947 224.974 164.741 224.806 164.595 224.591C164.448 224.376 164.366 224.124 164.358 223.864V217.896C164.358 217.775 164.315 217.659 164.236 217.568C163.695 216.956 163.384 216.174 163.357 215.357C163.338 215.095 163.381 214.832 163.484 214.59C163.586 214.348 163.744 214.133 163.945 213.964C164.16 213.81 164.42 213.729 164.685 213.734C164.863 213.736 165.04 213.764 165.209 213.819C165.831 214.071 166.366 214.498 166.748 215.05C167.13 215.601 167.343 216.252 167.361 216.922C167.385 217.212 167.329 217.502 167.199 217.762C167.069 218.021 166.87 218.24 166.624 218.394V218.393Z"
          fill="black"/>
    <path d="M110.923 195.011L68.4708 181.734C68.0564 181.586 67.6126 181.54 67.1766 181.599C66.7406 181.658 66.3252 181.821 65.965 182.074C65.5832 182.38 65.2792 182.772 65.0777 183.219C64.8763 183.665 64.7831 184.152 64.8058 184.641V191.889C64.8198 192.934 65.1484 193.951 65.7489 194.806C66.3494 195.662 67.1939 196.316 68.172 196.684L110.624 209.961C110.937 210.061 111.263 210.112 111.592 210.114C112.145 210.12 112.685 209.947 113.131 209.62C113.513 209.314 113.817 208.921 114.018 208.475C114.219 208.029 114.313 207.542 114.29 207.053V199.806C114.276 198.76 113.948 197.744 113.347 196.888C112.746 196.033 111.901 195.379 110.923 195.011ZM113.29 207.053C113.314 207.385 113.258 207.718 113.127 208.024C112.997 208.331 112.795 208.601 112.539 208.815C112.305 208.974 112.036 209.074 111.755 209.108C111.473 209.141 111.188 209.106 110.923 209.006L68.4708 195.729C67.6966 195.424 67.0301 194.897 66.5557 194.213C66.0814 193.53 65.8204 192.721 65.8058 191.889V184.641C65.7824 184.309 65.8383 183.976 65.9689 183.67C66.0995 183.364 66.301 183.093 66.5568 182.88C66.8337 182.68 67.1677 182.576 67.5089 182.581C67.7342 182.583 67.9578 182.619 68.172 182.689L110.624 195.966C111.394 196.277 112.057 196.806 112.53 197.488C113.004 198.17 113.268 198.976 113.29 199.806V207.053Z"
          fill="black"/>
</svg>
