<svg width="437" height="258" viewBox="0 0 437 258" fill="none" xmlns="http://www.w3.org/2000/svg">
    <path d="M436.416 63.2983C436.415 63.2722 436.422 63.2473 436.42 63.2209C436.408 63.16 436.393 63.0998 436.374 63.0409C436.352 62.8877 436.294 62.7419 436.206 62.615C436.026 62.2895 435.727 62.0464 435.372 61.9364L235.691 0.0675554C235.5 0.00800826 235.298 -0.0124782 235.098 0.00731009C234.899 0.0270984 234.705 0.0867589 234.529 0.182755L0.782956 127.399C0.65884 127.467 0.545096 127.553 0.445156 127.653C0.411982 127.691 0.380838 127.73 0.351856 127.771C0.293524 127.837 0.241217 127.909 0.195556 127.984C0.170214 128.035 0.147876 128.088 0.128656 128.141C0.0950348 128.216 0.0676088 128.293 0.0466559 128.372C0.0351955 128.43 0.0272146 128.489 0.0227559 128.548C0.0117759 128.603 0.00409577 128.659 -0.000244141 128.716V194.48C-0.000225161 194.8 0.102258 195.112 0.292212 195.37C0.482167 195.628 0.749624 195.818 1.05546 195.913L200.079 257.577C200.33 257.754 200.629 257.848 200.935 257.848C200.985 257.846 201.034 257.841 201.083 257.833C201.116 257.836 201.147 257.848 201.18 257.848C201.431 257.848 201.677 257.786 201.897 257.666L435.644 130.45C435.881 130.321 436.079 130.131 436.217 129.899C436.355 129.667 436.428 129.402 436.428 129.133V63.3694C436.428 63.3447 436.417 63.3227 436.416 63.2983ZM201.245 188.841C201.04 188.798 200.829 188.798 200.625 188.841L5.33766 128.335L235.408 3.12016L345.36 37.188L431.09 63.7503L201.245 188.841ZM2.99996 130.751L199.436 191.614V254.237L2.99996 193.374V130.751ZM202.436 253.957V191.609L433.428 65.8932V128.241L202.436 253.957Z"
          fill="black"/>
    <path d="M130.885 192.334C129.791 191.938 128.618 191.811 127.465 191.963C126.312 192.115 125.212 192.541 124.259 193.207C123.242 194.034 122.435 195.089 121.902 196.286C121.37 197.483 121.127 198.789 121.193 200.097C121.193 205.877 125.407 211.896 130.586 213.517C131.425 213.785 132.299 213.925 133.18 213.931C134.627 213.948 136.042 213.497 137.212 212.644C138.228 211.817 139.035 210.763 139.568 209.565C140.101 208.368 140.344 207.062 140.277 205.754C140.277 199.974 136.063 193.955 130.885 192.334ZM136.62 211.839C135.791 212.409 134.838 212.772 133.84 212.898C132.842 213.024 131.829 212.909 130.885 212.562C126.092 211.063 122.193 205.471 122.193 200.097C122.121 198.945 122.324 197.792 122.786 196.734C123.248 195.675 123.956 194.743 124.85 194.012C125.851 193.287 127.06 192.905 128.296 192.922C129.073 192.927 129.845 193.051 130.586 193.289C135.379 194.788 139.277 200.38 139.277 205.754C139.35 206.906 139.146 208.059 138.684 209.117C138.222 210.176 137.515 211.108 136.62 211.839Z"
          fill="black"/>
    <path d="M130.885 189.694C129.525 189.202 128.067 189.043 126.634 189.231C125.2 189.419 123.833 189.949 122.646 190.775C120.224 192.555 118.834 195.685 118.834 199.358C118.834 206.593 124.106 214.127 130.586 216.153C131.631 216.488 132.72 216.661 133.817 216.669C135.614 216.691 137.37 216.131 138.823 215.072C141.246 213.292 142.636 210.163 142.636 206.489C142.636 199.255 137.364 191.721 130.885 189.694ZM138.231 214.267C137.171 214.998 135.95 215.465 134.671 215.627C133.393 215.789 132.094 215.642 130.885 215.198C124.791 213.294 119.834 206.188 119.834 199.358C119.834 195.957 121.043 193.194 123.238 191.581C124.522 190.65 126.072 190.159 127.658 190.181C128.652 190.188 129.639 190.346 130.586 190.65C136.679 192.554 141.636 199.66 141.636 206.49C141.636 209.892 140.427 212.653 138.231 214.267Z"
          fill="black"/>
    <path d="M130.885 196.731C130.528 196.604 130.146 196.564 129.77 196.616C129.395 196.667 129.038 196.808 128.728 197.027C128.401 197.289 128.14 197.625 127.967 198.006C127.794 198.388 127.714 198.806 127.733 199.224C127.754 200.217 128.107 201.175 128.734 201.944V207.733C128.742 208.206 128.891 208.666 129.164 209.052C129.437 209.438 129.82 209.733 130.264 209.898L130.907 210.1C131.058 210.147 131.215 210.172 131.373 210.172C131.655 210.174 131.931 210.086 132.159 209.921C132.347 209.773 132.497 209.583 132.597 209.366C132.698 209.148 132.745 208.911 132.736 208.672V202.978C133.064 202.718 133.325 202.384 133.499 202.004C133.673 201.624 133.755 201.208 133.737 200.79C133.725 199.905 133.446 199.044 132.937 198.32C132.428 197.596 131.713 197.042 130.885 196.731ZM132.001 202.261C131.921 202.304 131.854 202.367 131.807 202.445C131.761 202.523 131.736 202.612 131.736 202.703V208.671C131.744 208.753 131.732 208.836 131.703 208.913C131.673 208.99 131.627 209.059 131.566 209.115C131.513 209.147 131.452 209.166 131.39 209.172C131.327 209.177 131.264 209.167 131.206 209.144L130.562 208.943C130.323 208.841 130.118 208.673 129.971 208.459C129.824 208.244 129.742 207.992 129.734 207.733V201.763C129.735 201.643 129.691 201.526 129.612 201.436C129.072 200.823 128.761 200.041 128.734 199.224C128.715 198.962 128.758 198.699 128.86 198.457C128.962 198.215 129.12 198.001 129.321 197.832C129.537 197.677 129.797 197.596 130.063 197.601C130.24 197.602 130.417 197.631 130.586 197.686C131.208 197.937 131.743 198.365 132.125 198.916C132.507 199.468 132.72 200.119 132.737 200.789C132.762 201.079 132.706 201.369 132.576 201.629C132.446 201.889 132.247 202.108 132.001 202.261V202.261Z"
          fill="black"/>
    <path d="M161.311 201.236C160.218 200.84 159.045 200.713 157.892 200.865C156.739 201.017 155.639 201.444 154.685 202.109C153.669 202.936 152.862 203.991 152.329 205.188C151.797 206.385 151.554 207.691 151.62 209C151.62 214.779 155.834 220.799 161.012 222.42C161.851 222.688 162.726 222.827 163.606 222.833C165.054 222.85 166.468 222.399 167.638 221.547C168.655 220.72 169.462 219.665 169.995 218.468C170.527 217.271 170.77 215.965 170.704 214.656C170.704 208.877 166.49 202.857 161.311 201.236ZM167.047 220.741C166.218 221.311 165.265 221.674 164.267 221.8C163.269 221.926 162.256 221.811 161.311 221.465C156.518 219.966 152.62 214.374 152.62 209C152.547 207.847 152.751 206.694 153.213 205.636C153.675 204.578 154.383 203.645 155.277 202.915C156.278 202.19 157.487 201.807 158.722 201.824C159.5 201.83 160.272 201.954 161.012 202.191C165.805 203.69 169.704 209.282 169.704 214.656C169.776 215.808 169.573 216.962 169.111 218.02C168.649 219.078 167.941 220.011 167.047 220.741Z"
          fill="black"/>
    <path d="M161.311 198.598C159.952 198.106 158.494 197.947 157.061 198.135C155.627 198.324 154.26 198.854 153.074 199.68C150.651 201.46 149.262 204.59 149.262 208.263C149.262 215.498 154.533 223.032 161.012 225.058C162.057 225.393 163.147 225.567 164.244 225.574C166.041 225.596 167.798 225.036 169.251 223.977C171.674 222.197 173.063 219.068 173.063 215.394C173.063 208.16 167.792 200.626 161.311 198.598ZM168.659 223.172C167.598 223.903 166.377 224.37 165.099 224.532C163.82 224.694 162.521 224.547 161.311 224.103C155.219 222.199 150.261 215.092 150.261 208.263C150.261 204.862 151.47 202.099 153.666 200.486C154.949 199.555 156.5 199.063 158.086 199.085C159.079 199.092 160.066 199.25 161.012 199.553C167.106 201.459 172.063 208.565 172.063 215.394C172.063 218.796 170.854 221.558 168.659 223.172Z"
          fill="black"/>
    <path d="M161.311 205.633C160.955 205.506 160.572 205.467 160.197 205.518C159.822 205.57 159.465 205.71 159.155 205.929C158.828 206.191 158.567 206.526 158.394 206.908C158.221 207.29 158.141 207.707 158.16 208.126C158.181 209.119 158.533 210.077 159.161 210.846V216.635C159.169 217.108 159.319 217.568 159.592 217.954C159.865 218.34 160.248 218.635 160.691 218.8L161.335 219.002C161.485 219.049 161.642 219.073 161.8 219.074C162.082 219.076 162.357 218.989 162.586 218.824C162.774 218.676 162.924 218.485 163.024 218.268C163.125 218.051 163.172 217.813 163.163 217.574V211.879C163.49 211.619 163.752 211.286 163.926 210.906C164.1 210.525 164.181 210.109 164.164 209.692C164.151 208.807 163.873 207.946 163.364 207.222C162.855 206.498 162.14 205.944 161.311 205.633ZM162.428 211.163C162.348 211.206 162.281 211.269 162.234 211.347C162.187 211.425 162.163 211.514 162.163 211.604V217.573C162.17 217.655 162.159 217.738 162.13 217.814C162.101 217.891 162.054 217.96 161.994 218.017C161.94 218.049 161.88 218.069 161.817 218.074C161.755 218.079 161.692 218.069 161.634 218.046L160.99 217.845C160.75 217.743 160.545 217.576 160.398 217.361C160.251 217.147 160.169 216.894 160.161 216.635V210.665C160.162 210.544 160.118 210.428 160.039 210.338C159.498 209.725 159.188 208.943 159.16 208.126C159.142 207.864 159.185 207.601 159.287 207.359C159.389 207.117 159.547 206.903 159.748 206.734C159.964 206.579 160.224 206.498 160.49 206.503C160.667 206.504 160.844 206.533 161.013 206.588C161.635 206.839 162.169 207.267 162.552 207.818C162.934 208.37 163.147 209.02 163.164 209.691C163.189 209.98 163.133 210.271 163.003 210.531C162.873 210.791 162.674 211.01 162.428 211.163V211.163Z"
          fill="black"/>
    <path d="M106.726 187.781L64.2752 174.504C63.8606 174.356 63.4165 174.31 62.9803 174.369C62.5441 174.428 62.1285 174.591 61.7684 174.844C61.3867 175.151 61.0828 175.543 60.8813 175.989C60.6799 176.435 60.5866 176.923 60.6092 177.412V184.659C60.6229 185.704 60.9516 186.721 61.5523 187.576C62.1531 188.432 62.9979 189.086 63.9764 189.454L106.428 202.731C106.741 202.831 107.067 202.883 107.395 202.885C107.948 202.89 108.488 202.717 108.934 202.39C109.316 202.084 109.62 201.692 109.821 201.245C110.023 200.799 110.116 200.312 110.094 199.823V192.576C110.079 191.531 109.751 190.514 109.15 189.659C108.549 188.803 107.705 188.149 106.726 187.781ZM109.094 199.823C109.117 200.155 109.061 200.488 108.931 200.794C108.8 201.101 108.598 201.372 108.343 201.585C108.108 201.744 107.839 201.844 107.558 201.878C107.277 201.911 106.991 201.876 106.726 201.776L64.2752 188.499C63.5052 188.188 62.8427 187.659 62.3691 186.977C61.8955 186.294 61.6314 185.489 61.6092 184.659V177.412C61.5858 177.079 61.6417 176.747 61.7723 176.44C61.9029 176.134 62.1044 175.863 62.3602 175.65C62.6373 175.45 62.9717 175.345 63.3133 175.351C63.5385 175.353 63.7622 175.389 63.9764 175.459L106.428 188.736C107.202 189.04 107.869 189.568 108.343 190.251C108.818 190.935 109.079 191.744 109.094 192.576V199.823Z"
          fill="black"/>
</svg>
