<svg width="437" height="413" viewBox="0 0 437 413" fill="none" xmlns="http://www.w3.org/2000/svg">
    <path d="M436.416 63.2967C436.414 63.2706 436.422 63.2457 436.419 63.2196C436.408 63.1587 436.393 63.0986 436.374 63.0396C436.352 62.8865 436.294 62.7407 436.205 62.6138C436.176 62.5576 436.144 62.5033 436.108 62.4512C436.047 62.3788 435.98 62.3123 435.907 62.2525C435.868 62.2126 435.827 62.1749 435.783 62.1397C435.658 62.0506 435.519 61.9815 435.371 61.9351L235.691 0.0672299C235.499 0.00790131 235.298 -0.0124628 235.099 0.00734094C234.899 0.0271447 234.706 0.0867145 234.53 0.18253L0.783566 127.397C0.659462 127.466 0.545694 127.551 0.445666 127.652C0.412477 127.689 0.381364 127.729 0.352466 127.77C0.294103 127.836 0.241794 127.908 0.196166 127.983C0.170746 128.034 0.148406 128.086 0.129266 128.14C0.0956161 128.215 0.0681892 128.292 0.0472663 128.371C0.0358059 128.429 0.027825 128.488 0.0233663 128.547C0.0123863 128.602 0.00470618 128.658 0.000366272 128.715V348.841C0.000275077 349.161 0.102716 349.473 0.292686 349.731C0.482657 349.988 0.750176 350.179 1.05607 350.273L200.078 411.937C200.329 412.114 200.628 412.209 200.935 412.209C200.984 412.206 201.034 412.201 201.083 412.194C201.116 412.196 201.148 412.209 201.181 412.209C201.432 412.209 201.678 412.146 201.898 412.026L435.644 284.811C435.881 284.683 436.079 284.492 436.217 284.26C436.354 284.028 436.427 283.764 436.427 283.494V63.368C436.427 63.3431 436.417 63.3211 436.416 63.2967ZM431.089 63.7491L201.245 188.841C201.041 188.797 200.829 188.797 200.625 188.841L5.33827 128.334L235.408 3.12003L431.089 63.7491ZM2.99997 130.749L199.435 191.613V408.598L2.99997 347.735V130.749ZM202.435 408.319V191.609L433.427 65.8919V282.602L202.435 408.319Z"
          fill="black"/>
    <path d="M132.095 207.388C131.001 206.993 129.829 206.865 128.676 207.017C127.523 207.169 126.423 207.595 125.469 208.26C124.452 209.087 123.645 210.142 123.112 211.34C122.579 212.537 122.336 213.843 122.403 215.152C122.403 220.931 126.617 226.951 131.796 228.571C132.635 228.839 133.51 228.979 134.391 228.985C135.838 229.002 137.251 228.551 138.421 227.699C139.438 226.872 140.245 225.817 140.778 224.619C141.31 223.422 141.554 222.116 141.487 220.807C141.488 215.028 137.274 209.008 132.095 207.388ZM137.83 226.893C137.002 227.464 136.049 227.827 135.051 227.953C134.053 228.079 133.039 227.963 132.096 227.616C127.303 226.118 123.403 220.526 123.403 215.152C123.331 213.999 123.534 212.846 123.996 211.788C124.459 210.73 125.167 209.797 126.061 209.067C127.062 208.341 128.271 207.959 129.507 207.976C130.284 207.982 131.057 208.105 131.797 208.343C136.59 209.841 140.488 215.433 140.488 220.807C140.561 221.96 140.357 223.113 139.895 224.172C139.433 225.23 138.725 226.163 137.83 226.893Z"
          fill="black"/>
    <path d="M132.095 204.751C130.736 204.258 129.278 204.1 127.844 204.288C126.411 204.476 125.043 205.005 123.857 205.832C121.434 207.612 120.044 210.741 120.044 214.415C120.044 221.649 125.316 229.184 131.796 231.211C132.841 231.545 133.93 231.719 135.027 231.727C136.824 231.748 138.58 231.188 140.034 230.13C142.457 228.349 143.846 225.221 143.846 221.547C143.846 214.313 138.575 206.779 132.095 204.751ZM139.442 229.323C138.381 230.055 137.16 230.522 135.882 230.684C134.604 230.846 133.305 230.7 132.095 230.256C126.001 228.351 121.044 221.244 121.044 214.415C121.044 211.014 122.253 208.251 124.449 206.638C125.733 205.707 127.283 205.216 128.869 205.238C129.863 205.245 130.85 205.403 131.796 205.706C137.889 207.613 142.846 214.718 142.846 221.547C142.846 224.949 141.637 227.71 139.442 229.324V229.323Z"
          fill="black"/>
    <path d="M132.095 211.787C131.739 211.66 131.357 211.621 130.982 211.672C130.607 211.724 130.249 211.864 129.94 212.082C129.613 212.344 129.352 212.68 129.179 213.062C129.005 213.444 128.925 213.861 128.944 214.28C128.965 215.273 129.317 216.229 129.944 216.999V222.788C129.952 223.261 130.102 223.721 130.375 224.107C130.648 224.494 131.031 224.789 131.474 224.954L132.118 225.155C132.268 225.203 132.425 225.227 132.582 225.228C132.865 225.23 133.141 225.142 133.37 224.976C133.558 224.828 133.708 224.638 133.808 224.421C133.908 224.204 133.956 223.966 133.947 223.728V218.032C134.274 217.772 134.535 217.439 134.709 217.059C134.883 216.678 134.964 216.262 134.947 215.845C134.935 214.96 134.656 214.1 134.147 213.376C133.639 212.652 132.923 212.098 132.095 211.787ZM133.211 217.316C133.131 217.359 133.065 217.423 133.018 217.5C132.971 217.578 132.947 217.667 132.947 217.758V223.728C132.954 223.81 132.943 223.892 132.914 223.969C132.884 224.045 132.838 224.114 132.778 224.17C132.724 224.203 132.663 224.223 132.601 224.229C132.538 224.234 132.475 224.224 132.416 224.2L131.773 223.999C131.533 223.898 131.328 223.73 131.181 223.515C131.034 223.3 130.952 223.048 130.944 222.788V216.819C130.944 216.7 130.901 216.584 130.823 216.493C130.282 215.88 129.971 215.097 129.944 214.28C129.925 214.018 129.968 213.755 130.07 213.513C130.173 213.271 130.331 213.057 130.532 212.888C130.747 212.733 131.007 212.652 131.272 212.657C131.45 212.659 131.627 212.687 131.796 212.742C132.418 212.994 132.952 213.422 133.334 213.973C133.716 214.524 133.929 215.174 133.946 215.845C133.971 216.134 133.916 216.424 133.786 216.684C133.656 216.944 133.457 217.163 133.211 217.316Z"
          fill="black"/>
    <path d="M162.522 216.292C161.428 215.897 160.256 215.77 159.103 215.922C157.95 216.073 156.85 216.5 155.896 217.165C154.88 217.992 154.072 219.046 153.54 220.244C153.007 221.441 152.764 222.747 152.831 224.055C152.831 229.835 157.044 235.855 162.223 237.475C163.062 237.743 163.936 237.883 164.817 237.889C166.264 237.906 167.679 237.455 168.849 236.602C169.865 235.775 170.673 234.72 171.205 233.523C171.738 232.326 171.981 231.02 171.915 229.711C171.915 223.932 167.701 217.913 162.522 216.292ZM168.256 235.796C167.428 236.367 166.475 236.73 165.477 236.856C164.479 236.982 163.466 236.867 162.522 236.52C157.729 235.022 153.831 229.43 153.831 224.055C153.758 222.903 153.961 221.749 154.424 220.691C154.886 219.633 155.594 218.7 156.489 217.97C157.489 217.245 158.697 216.863 159.933 216.88C160.711 216.886 161.483 217.009 162.223 217.247C167.016 218.746 170.914 224.337 170.914 229.711C170.987 230.864 170.784 232.017 170.321 233.075C169.859 234.134 169.151 235.066 168.256 235.796Z"
          fill="black"/>
    <path d="M162.522 213.654C161.162 213.161 159.705 213.002 158.271 213.19C156.837 213.378 155.47 213.908 154.284 214.735C151.861 216.515 150.471 219.644 150.471 223.318C150.471 230.552 155.743 238.086 162.223 240.114C163.267 240.448 164.357 240.622 165.453 240.629C167.251 240.651 169.007 240.091 170.46 239.033C172.883 237.251 174.272 234.123 174.272 230.45C174.273 223.215 169.001 215.681 162.522 213.654ZM169.869 238.226C168.808 238.958 167.587 239.425 166.309 239.587C165.03 239.749 163.732 239.602 162.522 239.159C156.428 237.253 151.471 230.147 151.471 223.318C151.471 219.916 152.68 217.154 154.875 215.54C156.159 214.609 157.71 214.118 159.295 214.14C160.289 214.147 161.277 214.306 162.223 214.609C168.316 216.515 173.273 223.621 173.273 230.45C173.273 233.851 172.064 236.613 169.869 238.226Z"
          fill="black"/>
    <path d="M162.522 220.69C162.165 220.563 161.783 220.523 161.408 220.575C161.033 220.626 160.676 220.767 160.367 220.985C160.039 221.247 159.778 221.582 159.605 221.964C159.432 222.346 159.352 222.764 159.37 223.183C159.392 224.176 159.744 225.133 160.371 225.903V231.691C160.379 232.164 160.529 232.624 160.802 233.01C161.075 233.396 161.458 233.691 161.901 233.857L162.545 234.058C162.695 234.106 162.852 234.13 163.009 234.13C163.292 234.133 163.568 234.045 163.797 233.879C163.985 233.731 164.135 233.541 164.235 233.324C164.335 233.107 164.383 232.869 164.373 232.63V226.936C164.701 226.676 164.963 226.342 165.137 225.962C165.311 225.581 165.392 225.165 165.374 224.747C165.362 223.862 165.084 223.002 164.575 222.278C164.066 221.554 163.35 221.001 162.522 220.69ZM163.639 226.219C163.559 226.262 163.492 226.325 163.445 226.403C163.398 226.481 163.374 226.57 163.373 226.66V232.63C163.381 232.712 163.37 232.795 163.34 232.871C163.311 232.948 163.265 233.017 163.204 233.073C163.151 233.106 163.09 233.126 163.027 233.131C162.965 233.136 162.901 233.127 162.843 233.103L162.2 232.902C161.96 232.8 161.755 232.632 161.608 232.418C161.461 232.203 161.379 231.951 161.371 231.691V225.722C161.372 225.602 161.329 225.486 161.25 225.395C160.709 224.782 160.398 224 160.37 223.183C160.351 222.921 160.395 222.658 160.497 222.416C160.599 222.174 160.757 221.96 160.958 221.79C161.174 221.636 161.433 221.555 161.698 221.56C161.876 221.561 162.053 221.59 162.223 221.645C162.844 221.896 163.379 222.324 163.761 222.875C164.143 223.426 164.356 224.077 164.374 224.747C164.399 225.037 164.343 225.327 164.214 225.587C164.084 225.846 163.885 226.065 163.639 226.219V226.219Z"
          fill="black"/>
    <path d="M107.937 202.836L65.4848 189.558C65.0701 189.41 64.6261 189.364 64.1899 189.424C63.7537 189.483 63.3381 189.646 62.9779 189.899C62.5965 190.206 62.2928 190.598 62.0916 191.044C61.8903 191.49 61.7972 191.978 61.8197 192.466V199.714C61.8335 200.759 62.1622 201.776 62.7628 202.631C63.3633 203.486 64.2078 204.141 65.186 204.508L107.638 217.787C107.951 217.886 108.277 217.938 108.605 217.94C109.159 217.946 109.699 217.772 110.146 217.445C110.527 217.139 110.831 216.746 111.032 216.3C111.234 215.855 111.327 215.367 111.304 214.879V207.63C111.29 206.585 110.961 205.569 110.36 204.713C109.76 203.858 108.915 203.204 107.937 202.836ZM110.304 214.879C110.327 215.211 110.271 215.543 110.141 215.849C110.01 216.156 109.809 216.426 109.553 216.639C109.319 216.798 109.05 216.899 108.768 216.932C108.487 216.966 108.202 216.931 107.937 216.832L65.4848 203.553C64.7151 203.242 64.0528 202.714 63.5794 202.032C63.106 201.35 62.8419 200.544 62.8197 199.714V192.466C62.7963 192.134 62.8522 191.802 62.9828 191.495C63.1134 191.189 63.3149 190.919 63.5707 190.706C63.805 190.547 64.0739 190.447 64.355 190.413C64.636 190.38 64.921 190.414 65.186 190.513L107.638 203.791C108.412 204.095 109.079 204.623 109.554 205.306C110.028 205.99 110.289 206.799 110.304 207.631V214.879Z"
          fill="black"/>
</svg>
